<svg width="20" height="20" viewBox="0 0 20 20" fill="none" xmlns="http://www.w3.org/2000/svg">
<g clip-path="url(#clip0_61_427)">
<path d="M9.99984 1.66663C14.6023 1.66663 18.3332 5.39746 18.3332 9.99996C18.3332 14.6025 14.6023 18.3333 9.99984 18.3333C5.39734 18.3333 1.6665 14.6025 1.6665 9.99996C1.6665 5.39746 5.39734 1.66663 9.99984 1.66663ZM6.6665 10.8333L3.38484 10.8341C3.5705 12.3026 4.23936 13.6677 5.2861 14.7143C6.33283 15.7608 7.69797 16.4295 9.1665 16.615V13.3333C8.50346 13.3333 7.86758 13.0699 7.39874 12.6011C6.9299 12.1322 6.6665 11.4963 6.6665 10.8333ZM16.6148 10.8341L13.3332 10.8333C13.3332 11.4963 13.0698 12.1322 12.6009 12.6011C12.1321 13.0699 11.4962 13.3333 10.8332 13.3333L10.834 16.615C12.3024 16.4293 13.6673 15.7606 14.7139 14.714C15.7605 13.6675 16.4292 12.3025 16.6148 10.8341ZM9.99984 3.33329C8.376 3.33332 6.80798 3.92595 5.59005 4.99996C4.37212 6.07398 3.58799 7.55554 3.38484 9.16663H6.6665C6.6665 8.94561 6.7543 8.73365 6.91058 8.57737C7.06686 8.42109 7.27882 8.33329 7.49984 8.33329H12.4998C12.7209 8.33329 12.9328 8.42109 13.0891 8.57737C13.2454 8.73365 13.3332 8.94561 13.3332 9.16663H16.6148C16.4117 7.55554 15.6276 6.07398 14.4096 4.99996C13.1917 3.92595 11.6237 3.33332 9.99984 3.33329Z" fill="white"/>
</g>
<defs>
<clipPath id="clip0_61_427">
<rect width="20" height="20" fill="white"/>
</clipPath>
</defs>
</svg>
