<svg width="16" height="16" viewBox="0 0 16 16" fill="none" xmlns="http://www.w3.org/2000/svg">
<mask id="path-1-inside-1_452_435" fill="white">
<path d="M12.9931 1H11.8345C11.4884 1 11.2069 1.28154 11.2069 1.62759V2.93103H8.99007C8.89004 2.65065 8.62472 2.44828 8.31034 2.44828C7.99597 2.44828 7.73065 2.65065 7.63062 2.93103H5.41379V1.62759C5.41379 1.28154 5.13225 1 4.78621 1H3.62759C3.28154 1 3 1.28154 3 1.62759V4.71724C3 5.06328 3.28154 5.34483 3.62759 5.34483H4.78621C5.13225 5.34483 5.41379 5.06328 5.41379 4.71724V3.41379H7.63062C7.70361 3.61829 7.86447 3.77915 8.06897 3.85214V12.5862H5.41379V11.2828C5.41379 10.9367 5.13225 10.6552 4.78621 10.6552H3.62759C3.28154 10.6552 3 10.9367 3 11.2828V14.3724C3 14.7185 3.28154 15 3.62759 15H4.78621C5.13225 15 5.41379 14.7185 5.41379 14.3724V13.069H11.2069V14.3724C11.2069 14.7185 11.4884 15 11.8345 15H12.9931C13.3391 15 13.6207 14.7185 13.6207 14.3724V11.2828C13.6207 10.9367 13.3391 10.6552 12.9931 10.6552H11.8345C11.4884 10.6552 11.2069 10.9367 11.2069 11.2828V12.5862H8.55172V3.85214C8.75622 3.77915 8.91708 3.61829 8.99007 3.41379H11.2069V4.71724C11.2069 5.06328 11.4884 5.34483 11.8345 5.34483H12.9931C13.3391 5.34483 13.6207 5.06328 13.6207 4.71724V1.62759C13.6207 1.28154 13.3391 1 12.9931 1ZM4.93103 4.71724C4.93103 4.79719 4.86615 4.86207 4.78621 4.86207H3.62759C3.54764 4.86207 3.48276 4.79719 3.48276 4.71724V4.52858L4.2069 4.16651L4.93103 4.52858V4.71724ZM4.93103 3.98866L4.31484 3.68066C4.24687 3.64668 4.16673 3.64668 4.09895 3.68066L3.48276 3.98866V3.56287L4.2069 3.2008L4.93103 3.56287V3.98866ZM4.93103 3.02314L4.31484 2.71514C4.24687 2.68116 4.16673 2.68116 4.09895 2.71514L3.48276 3.02314V2.59735L4.2069 2.23528L4.93103 2.59735V3.02314ZM4.93103 2.05763L4.31484 1.74963C4.24687 1.71564 4.16673 1.71564 4.09895 1.74963L3.48276 2.05763V1.62759C3.48276 1.54764 3.54764 1.48276 3.62759 1.48276H4.78621C4.86615 1.48276 4.93103 1.54764 4.93103 1.62759V2.05763ZM4.93103 14.3724C4.93103 14.4524 4.86615 14.5172 4.78621 14.5172H3.62759C3.54764 14.5172 3.48276 14.4524 3.48276 14.3724V11.2828C3.48276 11.2028 3.54764 11.1379 3.62759 11.1379H4.78621C4.86615 11.1379 4.93103 11.2028 4.93103 11.2828V14.3724ZM11.6897 11.2828C11.6897 11.2028 11.7545 11.1379 11.8345 11.1379H12.9931C13.073 11.1379 13.1379 11.2028 13.1379 11.2828V14.3724C13.1379 14.4524 13.073 14.5172 12.9931 14.5172H11.8345C11.7545 14.5172 11.6897 14.4524 11.6897 14.3724V11.2828ZM8.31034 3.41379C8.1773 3.41379 8.06897 3.30546 8.06897 3.17241C8.06897 3.03937 8.1773 2.93103 8.31034 2.93103C8.44339 2.93103 8.55172 3.03937 8.55172 3.17241C8.55172 3.30546 8.44339 3.41379 8.31034 3.41379ZM13.1379 4.71724C13.1379 4.79719 13.073 4.86207 12.9931 4.86207H11.8345C11.7545 4.86207 11.6897 4.79719 11.6897 4.71724V4.52858L12.4138 4.16651L13.1379 4.52858V4.71724ZM13.1379 3.98866L12.5217 3.68066C12.4538 3.64668 12.3736 3.64668 12.3058 3.68066L11.6897 3.98866V3.56287L12.4138 3.2008L13.1379 3.56306V3.98866ZM13.1379 3.02314L12.5217 2.71514C12.4538 2.68116 12.3736 2.68116 12.3058 2.71514L11.6897 3.02314V2.59735L12.4138 2.23528L13.1379 2.59754V3.02314ZM13.1379 2.05763L12.5217 1.74963C12.4538 1.71564 12.3736 1.71564 12.3058 1.74963L11.6897 2.05763V1.62759C11.6897 1.54764 11.7545 1.48276 11.8345 1.48276H12.9931C13.073 1.48276 13.1379 1.54764 13.1379 1.62759V2.05763Z"/>
</mask>
<path d="M12.9931 1H11.8345C11.4884 1 11.2069 1.28154 11.2069 1.62759V2.93103H8.99007C8.89004 2.65065 8.62472 2.44828 8.31034 2.44828C7.99597 2.44828 7.73065 2.65065 7.63062 2.93103H5.41379V1.62759C5.41379 1.28154 5.13225 1 4.78621 1H3.62759C3.28154 1 3 1.28154 3 1.62759V4.71724C3 5.06328 3.28154 5.34483 3.62759 5.34483H4.78621C5.13225 5.34483 5.41379 5.06328 5.41379 4.71724V3.41379H7.63062C7.70361 3.61829 7.86447 3.77915 8.06897 3.85214V12.5862H5.41379V11.2828C5.41379 10.9367 5.13225 10.6552 4.78621 10.6552H3.62759C3.28154 10.6552 3 10.9367 3 11.2828V14.3724C3 14.7185 3.28154 15 3.62759 15H4.78621C5.13225 15 5.41379 14.7185 5.41379 14.3724V13.069H11.2069V14.3724C11.2069 14.7185 11.4884 15 11.8345 15H12.9931C13.3391 15 13.6207 14.7185 13.6207 14.3724V11.2828C13.6207 10.9367 13.3391 10.6552 12.9931 10.6552H11.8345C11.4884 10.6552 11.2069 10.9367 11.2069 11.2828V12.5862H8.55172V3.85214C8.75622 3.77915 8.91708 3.61829 8.99007 3.41379H11.2069V4.71724C11.2069 5.06328 11.4884 5.34483 11.8345 5.34483H12.9931C13.3391 5.34483 13.6207 5.06328 13.6207 4.71724V1.62759C13.6207 1.28154 13.3391 1 12.9931 1ZM4.93103 4.71724C4.93103 4.79719 4.86615 4.86207 4.78621 4.86207H3.62759C3.54764 4.86207 3.48276 4.79719 3.48276 4.71724V4.52858L4.2069 4.16651L4.93103 4.52858V4.71724ZM4.93103 3.98866L4.31484 3.68066C4.24687 3.64668 4.16673 3.64668 4.09895 3.68066L3.48276 3.98866V3.56287L4.2069 3.2008L4.93103 3.56287V3.98866ZM4.93103 3.02314L4.31484 2.71514C4.24687 2.68116 4.16673 2.68116 4.09895 2.71514L3.48276 3.02314V2.59735L4.2069 2.23528L4.93103 2.59735V3.02314ZM4.93103 2.05763L4.31484 1.74963C4.24687 1.71564 4.16673 1.71564 4.09895 1.74963L3.48276 2.05763V1.62759C3.48276 1.54764 3.54764 1.48276 3.62759 1.48276H4.78621C4.86615 1.48276 4.93103 1.54764 4.93103 1.62759V2.05763ZM4.93103 14.3724C4.93103 14.4524 4.86615 14.5172 4.78621 14.5172H3.62759C3.54764 14.5172 3.48276 14.4524 3.48276 14.3724V11.2828C3.48276 11.2028 3.54764 11.1379 3.62759 11.1379H4.78621C4.86615 11.1379 4.93103 11.2028 4.93103 11.2828V14.3724ZM11.6897 11.2828C11.6897 11.2028 11.7545 11.1379 11.8345 11.1379H12.9931C13.073 11.1379 13.1379 11.2028 13.1379 11.2828V14.3724C13.1379 14.4524 13.073 14.5172 12.9931 14.5172H11.8345C11.7545 14.5172 11.6897 14.4524 11.6897 14.3724V11.2828ZM8.31034 3.41379C8.1773 3.41379 8.06897 3.30546 8.06897 3.17241C8.06897 3.03937 8.1773 2.93103 8.31034 2.93103C8.44339 2.93103 8.55172 3.03937 8.55172 3.17241C8.55172 3.30546 8.44339 3.41379 8.31034 3.41379ZM13.1379 4.71724C13.1379 4.79719 13.073 4.86207 12.9931 4.86207H11.8345C11.7545 4.86207 11.6897 4.79719 11.6897 4.71724V4.52858L12.4138 4.16651L13.1379 4.52858V4.71724ZM13.1379 3.98866L12.5217 3.68066C12.4538 3.64668 12.3736 3.64668 12.3058 3.68066L11.6897 3.98866V3.56287L12.4138 3.2008L13.1379 3.56306V3.98866ZM13.1379 3.02314L12.5217 2.71514C12.4538 2.68116 12.3736 2.68116 12.3058 2.71514L11.6897 3.02314V2.59735L12.4138 2.23528L13.1379 2.59754V3.02314ZM13.1379 2.05763L12.5217 1.74963C12.4538 1.71564 12.3736 1.71564 12.3058 1.74963L11.6897 2.05763V1.62759C11.6897 1.54764 11.7545 1.48276 11.8345 1.48276H12.9931C13.073 1.48276 13.1379 1.54764 13.1379 1.62759V2.05763Z" stroke="#18181B" stroke-width="2" mask="url(#path-1-inside-1_452_435)"/>
</svg>
