<svg width="160" height="160" viewBox="0 0 160 160" fill="none" xmlns="http://www.w3.org/2000/svg">
<path d="M93.3398 106.668H60.0065M126.673 106.668H146.673V85.6678C146.678 84.0813 146.116 82.5451 145.09 81.3354C144.063 80.1257 142.639 79.3216 141.073 79.0678L106.673 73.3345L88.6732 49.3345C88.0522 48.5065 87.247 47.8345 86.3213 47.3716C85.3956 46.9088 84.3748 46.6678 83.3398 46.6678H34.9398C32.455 46.6505 30.0147 47.328 27.8944 48.6237C25.774 49.9195 24.058 51.782 22.9398 54.0011L17.6065 64.8678C14.8075 70.4319 13.3465 76.5727 13.3398 82.8011V106.668H26.6732M60.0065 110.001C60.0065 119.206 52.5446 126.668 43.3398 126.668C34.1351 126.668 26.6732 119.206 26.6732 110.001C26.6732 100.796 34.1351 93.3345 43.3398 93.3345C52.5446 93.3345 60.0065 100.796 60.0065 110.001ZM126.673 110.001C126.673 119.206 119.211 126.668 110.007 126.668C100.802 126.668 93.3398 119.206 93.3398 110.001C93.3398 100.796 100.802 93.3345 110.007 93.3345C119.211 93.3345 126.673 100.796 126.673 110.001Z" stroke="#E2E8F0" stroke-width="10" stroke-linecap="round" stroke-linejoin="round"/>
</svg>
