<svg width="16" height="16" viewBox="0 0 16 16" fill="none" xmlns="http://www.w3.org/2000/svg">
<path d="M7.33398 13.3333H2.66732C2.3137 13.3333 1.97456 13.1929 1.72451 12.9428C1.47446 12.6928 1.33398 12.3536 1.33398 12V3.33333C1.33398 2.6 1.93398 2 2.66732 2H5.28732C5.50693 2.00114 5.72286 2.0565 5.91592 2.16117C6.10898 2.26585 6.2732 2.41659 6.39398 2.6L6.94065 3.4C7.06144 3.58341 7.22565 3.73415 7.41872 3.83883C7.61178 3.9435 7.82771 3.99886 8.04732 4H13.334C13.6876 4 14.0267 4.14048 14.2768 4.39052C14.5268 4.64057 14.6673 4.97971 14.6673 5.33333V6.33333M14.194 9.13333C13.9668 8.90729 13.6777 8.7537 13.3632 8.69199C13.0488 8.63028 12.7231 8.66323 12.4273 8.78667C12.2273 8.86667 12.0473 8.98667 11.894 9.14L11.6673 9.36667L11.434 9.14C11.2076 8.91283 10.9188 8.75799 10.6043 8.69509C10.2898 8.63219 9.96369 8.66406 9.66732 8.78667C9.46732 8.86667 9.29398 8.98667 9.14065 9.14C8.50732 9.76667 8.47398 10.8267 9.27398 11.6333L11.6673 14L14.0673 11.6333C14.8673 10.8267 14.8273 9.76667 14.194 9.14V9.13333Z" stroke="#F8FAFC" stroke-linecap="round" stroke-linejoin="round"/>
</svg>
