<svg width="16" height="10" viewBox="0 0 16 10" fill="none" xmlns="http://www.w3.org/2000/svg">
<path d="M4.00004 5H4.00671M12 5H12.0067M2.66671 1H13.3334C14.0698 1 14.6667 1.59695 14.6667 2.33333V7.66667C14.6667 8.40305 14.0698 9 13.3334 9H2.66671C1.93033 9 1.33337 8.40305 1.33337 7.66667V2.33333C1.33337 1.59695 1.93033 1 2.66671 1ZM9.33337 5C9.33337 5.73638 8.73642 6.33333 8.00004 6.33333C7.26366 6.33333 6.66671 5.73638 6.66671 5C6.66671 4.26362 7.26366 3.66667 8.00004 3.66667C8.73642 3.66667 9.33337 4.26362 9.33337 5Z" stroke="#020817" stroke-opacity="0.5" stroke-linecap="round" stroke-linejoin="round"/>
</svg>
