<svg width="16" height="16" viewBox="0 0 16 16" fill="none" xmlns="http://www.w3.org/2000/svg">
<path d="M8.66001 3.15527C8.66032 2.90465 8.87595 2.67809 9.12689 2.6684C9.42782 2.66402 9.72907 2.66746 10.03 2.66684C10.3606 2.66652 10.6866 2.81621 10.9038 3.06496C11.0613 3.23496 11.1353 3.45777 11.2072 3.67309C11.3975 3.64277 11.5909 3.66121 11.7831 3.65621C11.9316 3.65902 12.1063 3.62996 12.2219 3.74684C12.3806 3.89184 12.3144 4.12465 12.3281 4.3134C12.3122 4.50434 12.3819 4.73527 12.2322 4.88871C12.0847 5.04152 11.8559 4.97527 11.6681 4.98965C11.9069 5.67309 12.1463 6.35621 12.3853 7.03965C12.9275 6.94684 13.4963 7.02277 13.9966 7.25152C14.6791 7.5584 15.2291 8.14652 15.4888 8.84902C15.7116 9.44215 15.7247 10.1115 15.525 10.7131C15.3366 11.289 14.9572 11.7996 14.4613 12.1481C14.0428 12.4453 13.5419 12.6243 13.0297 12.659C12.4684 12.6996 11.8963 12.5659 11.4116 12.2803C10.8269 11.9415 10.3709 11.3871 10.1528 10.7478C9.93564 10.1206 9.95189 9.41621 10.1975 8.79965C10.4338 8.20059 10.8813 7.68871 11.4416 7.37152C11.3166 7.0134 11.1913 6.6559 11.0659 6.29809C11.0216 6.47246 10.9853 6.6509 10.905 6.81309C10.7113 7.22215 10.3225 7.53184 9.88032 7.62934C9.70251 7.67215 9.51907 7.66652 9.33782 7.66746C9.1947 8.14246 9.05595 8.61871 8.90782 9.09246C8.67907 9.78934 7.99564 10.3037 7.2622 10.33C6.82595 10.3375 6.38939 10.3312 5.95282 10.3331C5.82532 11.0428 5.41564 11.6956 4.83251 12.1193C4.30126 12.5131 3.62751 12.7078 2.96814 12.659C2.35345 12.6178 1.75657 12.3646 1.29626 11.9562C0.863136 11.5756 0.548761 11.0606 0.413449 10.4996C0.265324 9.89434 0.325011 9.23965 0.583761 8.67215C0.894074 7.9809 1.4922 7.42621 2.20501 7.16902C2.62407 7.01402 3.07814 6.97277 3.52126 7.01777C3.65157 6.74152 3.8647 6.50965 4.11189 6.33277C3.35532 6.33371 2.59876 6.3334 1.8422 6.33309C1.67501 6.33777 1.50782 6.25527 1.4147 6.11559C1.29626 5.94934 1.29814 5.70996 1.41814 5.54496C1.51251 5.40871 1.67782 5.32809 1.84314 5.3334C2.73782 5.33402 3.63282 5.33152 4.52751 5.33465C4.85876 5.33527 5.10001 5.70965 4.97564 6.01434C5.35251 5.98371 5.73189 6.00777 6.1097 5.99965C6.15814 5.79027 6.21345 5.57809 6.32876 5.39434C6.58939 4.95652 7.08407 4.67027 7.59439 4.66746C8.56095 4.66559 9.52782 4.66715 10.4947 4.66652C10.3909 4.37215 10.2903 4.07621 10.1844 3.78246C10.1634 3.71527 10.0978 3.6659 10.0269 3.66777C9.72626 3.66277 9.42564 3.67121 9.12501 3.66402C8.86689 3.65371 8.64814 3.41309 8.66001 3.15527ZM7.13814 6.01715C7.07814 6.22809 7.03501 6.44371 6.97376 6.65434C6.91282 6.85621 6.71095 7.0009 6.50095 6.99902C6.05282 7.00152 5.6047 6.99871 5.15657 7.00027C4.87595 6.99809 4.60032 7.14996 4.45314 7.38902C4.38314 7.49715 4.35189 7.62371 4.31501 7.7459C4.15657 8.27527 3.99751 8.80402 3.83939 9.3334C4.95657 9.33246 6.07345 9.33371 7.19064 9.33246C7.54032 9.33215 7.8697 9.08496 7.96907 8.74996C8.12845 8.22215 8.28626 7.69371 8.4447 7.16559C8.4772 7.05965 8.50157 6.94652 8.57345 6.85871C8.6622 6.74434 8.80251 6.67215 8.94751 6.66809C9.16282 6.66215 9.37876 6.67246 9.59407 6.6634C9.79314 6.65215 9.97376 6.5059 10.0288 6.31465C10.0875 6.09996 10.1372 5.88246 10.1925 5.66684C9.33657 5.66684 8.48032 5.66621 7.62439 5.66715C7.40782 5.65965 7.1972 5.80777 7.13814 6.01715ZM2.06189 8.36777C1.69751 8.64027 1.44189 9.05434 1.36407 9.5034C1.27126 9.99715 1.39376 10.5275 1.69532 10.9296C1.95001 11.2746 2.33126 11.5231 2.74939 11.6181C3.20376 11.7246 3.69845 11.6512 4.10001 11.4128C4.50282 11.1784 4.80376 10.7812 4.93032 10.3334C4.33032 10.3315 3.73001 10.3362 3.13001 10.3312C2.8347 10.3196 2.60157 10.0056 2.68064 9.71965C2.84751 9.14496 3.0247 8.5734 3.19407 7.99965C2.79001 7.99559 2.38501 8.12402 2.06189 8.36777ZM12.7231 8.00402C12.9 8.51059 13.0772 9.01684 13.2547 9.52309C13.29 9.62715 13.3372 9.73184 13.3331 9.84465C13.3291 10.0578 13.1766 10.2603 12.9684 10.3143C12.7275 10.3884 12.4463 10.2434 12.3644 10.0056C12.1675 9.4484 11.9738 8.88996 11.7778 8.33246C11.2288 8.7109 10.9222 9.40465 11.0156 10.0656C11.0753 10.5662 11.3544 11.0359 11.7672 11.3259C12.1553 11.605 12.6563 11.7206 13.1278 11.6418C13.5419 11.5771 13.9313 11.3646 14.2075 11.049C14.5703 10.6431 14.7334 10.0684 14.6406 9.53215C14.5681 9.07215 14.31 8.64496 13.9363 8.36715C13.5925 8.1059 13.1534 7.97746 12.7231 8.00402Z" fill="#18181B"/>
</svg>
