<svg width="17" height="16" viewBox="0 0 17 16" fill="none" xmlns="http://www.w3.org/2000/svg">
<path fill-rule="evenodd" clip-rule="evenodd" d="M5.13336 1.06665C5.42791 1.06665 5.66669 1.30543 5.66669 1.59998V2.13332H11V1.59998C11 1.30543 11.2389 1.06665 11.5334 1.06665C11.8279 1.06665 12.0667 1.30543 12.0667 1.59998V2.13332H13.6667C14.5503 2.13332 15.2667 2.84966 15.2667 3.73332V13.3333C15.2667 14.2169 14.5503 14.9333 13.6667 14.9333H3.00002C2.11637 14.9333 1.40002 14.2169 1.40002 13.3333V3.73332C1.40002 2.84966 2.11637 2.13332 3.00002 2.13332H4.60002V1.59998C4.60002 1.30543 4.83881 1.06665 5.13336 1.06665ZM11 3.19998V3.73332C11 4.02787 11.2389 4.26665 11.5334 4.26665C11.8279 4.26665 12.0667 4.02787 12.0667 3.73332V3.19998H13.6667C13.9612 3.19998 14.2 3.43877 14.2 3.73332V5.33332H2.46669V3.73332C2.46669 3.43877 2.70548 3.19998 3.00002 3.19998H4.60002V3.73332C4.60002 4.02787 4.83881 4.26665 5.13336 4.26665C5.42791 4.26665 5.66669 4.02787 5.66669 3.73332V3.19998H11ZM2.46669 6.39998V13.3333C2.46669 13.6278 2.70548 13.8667 3.00002 13.8667H13.6667C13.9612 13.8667 14.2 13.6278 14.2 13.3333V6.39998H2.46669ZM7.80002 7.99998C7.80002 7.70543 8.03881 7.46665 8.33336 7.46665C8.62791 7.46665 8.86669 7.70543 8.86669 7.99998C8.86669 8.29453 8.62791 8.53332 8.33336 8.53332C8.03881 8.53332 7.80002 8.29453 7.80002 7.99998ZM10.4667 7.46665C10.1721 7.46665 9.93336 7.70543 9.93336 7.99998C9.93336 8.29453 10.1721 8.53332 10.4667 8.53332C10.7612 8.53332 11 8.29453 11 7.99998C11 7.70543 10.7612 7.46665 10.4667 7.46665ZM12.0667 7.99998C12.0667 7.70543 12.3055 7.46665 12.6 7.46665C12.8945 7.46665 13.1334 7.70543 13.1334 7.99998C13.1334 8.29453 12.8945 8.53332 12.6 8.53332C12.3055 8.53332 12.0667 8.29453 12.0667 7.99998ZM12.6 9.59998C12.3055 9.59998 12.0667 9.83877 12.0667 10.1333C12.0667 10.4279 12.3055 10.6667 12.6 10.6667C12.8945 10.6667 13.1334 10.4279 13.1334 10.1333C13.1334 9.83877 12.8945 9.59998 12.6 9.59998ZM9.93336 10.1333C9.93336 9.83877 10.1721 9.59998 10.4667 9.59998C10.7612 9.59998 11 9.83877 11 10.1333C11 10.4279 10.7612 10.6667 10.4667 10.6667C10.1721 10.6667 9.93336 10.4279 9.93336 10.1333ZM8.33336 9.59998C8.03881 9.59998 7.80002 9.83877 7.80002 10.1333C7.80002 10.4279 8.03881 10.6667 8.33336 10.6667C8.62791 10.6667 8.86669 10.4279 8.86669 10.1333C8.86669 9.83877 8.62791 9.59998 8.33336 9.59998ZM5.66669 10.1333C5.66669 9.83877 5.90548 9.59998 6.20002 9.59998C6.49457 9.59998 6.73336 9.83877 6.73336 10.1333C6.73336 10.4279 6.49457 10.6667 6.20002 10.6667C5.90548 10.6667 5.66669 10.4279 5.66669 10.1333ZM4.06669 9.59998C3.77214 9.59998 3.53336 9.83877 3.53336 10.1333C3.53336 10.4279 3.77214 10.6667 4.06669 10.6667C4.36124 10.6667 4.60002 10.4279 4.60002 10.1333C4.60002 9.83877 4.36124 9.59998 4.06669 9.59998ZM3.53336 12.2667C3.53336 11.9721 3.77214 11.7333 4.06669 11.7333C4.36124 11.7333 4.60002 11.9721 4.60002 12.2667C4.60002 12.5612 4.36124 12.8 4.06669 12.8C3.77214 12.8 3.53336 12.5612 3.53336 12.2667ZM6.20002 11.7333C5.90548 11.7333 5.66669 11.9721 5.66669 12.2667C5.66669 12.5612 5.90548 12.8 6.20002 12.8C6.49457 12.8 6.73336 12.5612 6.73336 12.2667C6.73336 11.9721 6.49457 11.7333 6.20002 11.7333ZM7.80002 12.2667C7.80002 11.9721 8.03881 11.7333 8.33336 11.7333C8.62791 11.7333 8.86669 11.9721 8.86669 12.2667C8.86669 12.5612 8.62791 12.8 8.33336 12.8C8.03881 12.8 7.80002 12.5612 7.80002 12.2667ZM10.4667 11.7333C10.1721 11.7333 9.93336 11.9721 9.93336 12.2667C9.93336 12.5612 10.1721 12.8 10.4667 12.8C10.7612 12.8 11 12.5612 11 12.2667C11 11.9721 10.7612 11.7333 10.4667 11.7333Z" fill="#020817" fill-opacity="0.5"/>
</svg>
