<svg width="16" height="16" viewBox="0 0 16 16" fill="none" xmlns="http://www.w3.org/2000/svg">
<path d="M3.69438 4.25439C4.00469 3.70314 4.6175 3.34033 5.25032 3.33439C6.54188 3.33221 7.83376 3.33346 9.12532 3.33377C9.71594 3.33158 10.2959 3.63721 10.6278 4.12533C11.1322 4.87721 11.6322 5.63158 12.1359 6.38377C12.8922 6.53439 13.6481 6.68658 14.4044 6.83783C14.5988 6.87346 14.7888 6.93939 14.9559 7.04596C15.3784 7.30533 15.6559 7.78533 15.665 8.28158C15.6681 8.69721 15.6666 9.11314 15.6659 9.52877C15.66 10.1625 15.2941 10.7744 14.7438 11.0869C14.4 11.2941 13.9909 11.3538 13.5953 11.3335C13.4622 11.7894 13.15 12.1903 12.7363 12.425C12.2906 12.6841 11.7322 12.7372 11.2453 12.5675C10.6847 12.3775 10.2338 11.9022 10.0713 11.3335C8.57938 11.3335 7.08719 11.3331 5.59532 11.3335C5.46438 11.7822 5.15969 12.1778 4.75532 12.4138C4.29969 12.6863 3.72188 12.7413 3.22282 12.5597C2.67125 12.3644 2.22907 11.8919 2.07032 11.3285C1.59157 11.301 1.1275 11.0803 0.807505 10.7222C0.50563 10.3913 0.33313 9.94689 0.334067 9.49877C0.332817 8.90627 0.332817 8.31377 0.334067 7.72127C0.333755 7.30096 0.584067 6.89408 0.956567 6.70096C1.08438 6.63002 1.22719 6.59158 1.37094 6.57002C1.75157 6.50814 2.13219 6.44439 2.51251 6.37971C2.90751 5.67189 3.29907 4.96221 3.69438 4.25439ZM4.56375 4.75002C4.26844 5.27658 3.97719 5.80564 3.68313 6.33314C6.08844 6.33314 8.49375 6.33377 10.8991 6.33283C10.5384 5.79314 10.1794 5.25252 9.81844 4.71314C9.66844 4.48096 9.39938 4.33314 9.12282 4.33408C7.84313 4.33283 6.56376 4.33283 5.28438 4.33408C4.99219 4.33158 4.70719 4.49564 4.56375 4.75002ZM2.65876 7.37002C2.26157 7.43783 1.86313 7.50033 1.46594 7.56939C1.38032 7.58064 1.32375 7.66752 1.33344 7.75096C1.33313 8.27158 1.33344 8.79189 1.33344 9.31221C1.33188 9.48283 1.32563 9.66064 1.39625 9.82033C1.50625 10.0978 1.77907 10.2925 2.07344 10.3256C2.24063 9.74814 2.70563 9.26814 3.27969 9.08783C3.77094 8.92689 4.32969 8.99221 4.77094 9.26158C5.16782 9.49877 5.46594 9.89002 5.59563 10.3335C7.0875 10.3331 8.57969 10.3338 10.0719 10.3328C10.2366 9.75221 10.7038 9.26877 11.28 9.08783C11.7709 8.92689 12.3294 8.99221 12.7703 9.26127C13.1675 9.49814 13.4656 9.89002 13.5956 10.3331C13.8028 10.3356 14.0222 10.3463 14.2113 10.2444C14.4884 10.1097 14.67 9.80846 14.6663 9.50096C14.6666 9.10533 14.6678 8.70971 14.6656 8.31439C14.6681 8.08533 14.4931 7.87221 14.2678 7.83096C13.4684 7.66939 12.6688 7.51002 11.8691 7.35002C11.7678 7.32533 11.6631 7.33439 11.5603 7.33346C8.68625 7.33314 5.81188 7.33377 2.93782 7.33314C2.84376 7.33283 2.75126 7.35471 2.65876 7.37002ZM3.63876 10.0228C3.40813 10.0753 3.20532 10.2335 3.09751 10.4438C2.91313 10.7885 3.00782 11.2566 3.32219 11.4928C3.65094 11.7578 4.17782 11.7119 4.45438 11.3919C4.74813 11.0766 4.7325 10.5338 4.41907 10.2375C4.21875 10.0372 3.91282 9.95689 3.63876 10.0228ZM11.6403 10.0222C11.4403 10.0675 11.2597 10.1906 11.1447 10.3603C10.9084 10.6956 10.9694 11.201 11.2859 11.4644C11.6116 11.7575 12.1675 11.7256 12.4528 11.3906C12.7494 11.0697 12.7269 10.5172 12.4022 10.2235C12.2038 10.0331 11.9069 9.95939 11.6403 10.0222Z" fill="#18181B"/>
</svg>
