<svg width="16" height="16" viewBox="0 0 16 16" fill="none" xmlns="http://www.w3.org/2000/svg">
<path d="M0.805002 4.21C1.03969 3.69188 1.58656 3.33188 2.15719 3.33407C5.65594 3.33282 9.15438 3.33282 12.6528 3.33407C13.3447 3.33407 14.0109 3.765 14.2956 4.395C14.5928 5.05657 14.8863 5.71969 15.1791 6.38313C15.3269 6.71344 15.3459 7.08125 15.3331 7.43782C15.3338 8.45907 15.3344 9.48 15.3325 10.5009C15.3394 11.1266 14.9081 11.7213 14.3159 11.9181C14.0859 12.0038 13.8372 12.0031 13.5953 12C13.4672 12.4388 13.1738 12.8269 12.7825 13.0641C12.3494 13.3334 11.8 13.4044 11.3125 13.2559C10.7206 13.0819 10.2409 12.5903 10.07 11.9991C8.68969 12.0009 7.30969 12 5.92938 11.9994C5.79875 12.4425 5.50125 12.835 5.10344 13.0716C4.66594 13.3394 4.11156 13.4047 3.62313 13.2488C3.04281 13.0691 2.57094 12.5844 2.405 12C2.19406 12.0013 1.97875 12.0063 1.77469 11.945C1.14938 11.7831 0.672189 11.1784 0.668127 10.5313C0.664689 8.64563 0.667502 6.76 0.666877 4.87469C0.664064 4.64657 0.707502 4.41688 0.805002 4.21ZM1.6675 4.81469C1.66594 5.43188 1.66656 6.04938 1.66719 6.66688C2.77813 6.66625 3.88906 6.66688 5 6.66657C5 5.88875 5 5.11125 5 4.33344C4.05313 4.33375 3.10625 4.3325 2.15938 4.33375C1.9 4.32813 1.66719 4.55532 1.6675 4.81469ZM6 4.33344C6 5.11125 6 5.88875 6 6.66657C7.33344 6.66657 8.66656 6.66657 10 6.66657C10 5.88875 10 5.11125 10 4.33344C8.66656 4.33344 7.33344 4.33344 6 4.33344ZM11 4.33344C11 5.11125 11 5.88875 11 6.66657C12.0706 6.66657 13.1409 6.66688 14.2113 6.66657C13.9672 6.11563 13.7222 5.56532 13.4781 5.01438C13.4188 4.88282 13.3669 4.74438 13.2725 4.63282C13.1159 4.4425 12.8713 4.33157 12.6253 4.33375C12.0834 4.3325 11.5419 4.33375 11 4.33344ZM1.66656 7.66688C1.66688 8.61188 1.66625 9.55688 1.66688 10.5019C1.66344 10.6903 1.77875 10.8753 1.95094 10.9531C2.09219 11.0213 2.25344 10.995 2.40469 11C2.57344 10.4066 3.05719 9.91532 3.65 9.74251C4.13219 9.59751 4.67438 9.66532 5.10406 9.92844C5.50094 10.165 5.79969 10.5566 5.92844 11C7.30906 11.0006 8.68969 10.9988 10.07 11.0009C10.2403 10.4091 10.7203 9.91719 11.3125 9.74375C11.7934 9.5975 12.3341 9.66407 12.7644 9.92438C13.1644 10.1609 13.4653 10.5541 13.5953 11C13.7388 10.995 13.89 11.0191 14.0266 10.9628C14.2097 10.8897 14.3366 10.6994 14.3328 10.5019C14.3338 10.1125 14.3334 9.72282 14.3328 9.33313C14.1572 9.34219 13.9606 9.33594 13.8263 9.205C13.6047 9.01844 13.6072 8.64032 13.8316 8.45688C13.9659 8.32907 14.1597 8.32594 14.3334 8.33344C14.3334 8.11126 14.3334 7.88875 14.3334 7.66657C10.1109 7.66688 5.88906 7.66688 1.66656 7.66688ZM3.9175 10.7041C3.66094 10.7809 3.45031 10.9925 3.37438 11.2494C3.26406 11.5925 3.40063 12.0006 3.70656 12.1956C4.05281 12.4344 4.57375 12.3519 4.82375 12.0119C5.09844 11.6681 5.03531 11.1147 4.685 10.8459C4.47344 10.6753 4.17625 10.6238 3.9175 10.7041ZM11.575 10.7066C11.2369 10.8088 10.9928 11.1475 11.0006 11.5003C10.9928 11.8606 11.2484 12.205 11.5963 12.2997C11.9081 12.3931 12.2709 12.2878 12.4747 12.0319C12.6994 11.7631 12.7244 11.3513 12.5375 11.0556C12.3469 10.735 11.9266 10.5891 11.575 10.7066Z" fill="#18181B"/>
</svg>
