<svg width="16" height="16" viewBox="0 0 16 16" fill="none" xmlns="http://www.w3.org/2000/svg">
<path d="M0.809999 3.90591C1.13437 3.54966 1.61312 3.34091 2.09469 3.34373C4.46969 3.34404 6.84469 3.3431 9.21969 3.34404C9.85375 3.32279 10.4887 3.33716 11.1234 3.33404C11.7537 3.32966 12.3519 3.76873 12.5394 4.37029C12.7581 5.02435 12.9756 5.67904 13.1941 6.33341C13.6094 6.34435 14.0403 6.28654 14.4378 6.4381C15.1328 6.67529 15.6444 7.36216 15.6647 8.09748C15.6694 8.7631 15.6653 9.42873 15.6669 10.0944C15.6684 10.2728 15.6503 10.4528 15.5931 10.6225C15.4494 11.0756 15.0772 11.4478 14.6247 11.5925C14.2931 11.705 13.9384 11.6556 13.5953 11.6665C13.4656 12.11 13.1672 12.5022 12.7694 12.7384C12.33 13.0075 11.7728 13.0722 11.2831 12.9131C10.7053 12.7322 10.2372 12.2481 10.0712 11.6665C8.57937 11.6669 7.08719 11.6665 5.59531 11.6665C5.46562 12.1097 5.1675 12.5019 4.77031 12.7381C4.33031 13.0075 3.77187 13.0725 3.28125 12.9125C2.70594 12.7312 2.23656 12.2494 2.07312 11.6681C1.87094 11.6656 1.665 11.6737 1.46781 11.6197C0.952812 11.4919 0.524062 11.0712 0.387187 10.5584C0.316249 10.3162 0.336249 10.0619 0.333437 9.8131C0.334999 9.61404 0.327187 9.41466 0.343749 9.21591C0.343437 7.84185 0.344062 6.46748 0.343749 5.09341C0.342499 4.65748 0.509374 4.22248 0.809999 3.90591ZM1.35 4.98466C3.68125 4.98404 6.0125 4.98498 8.34375 4.98435C8.34375 4.7706 8.34375 4.55716 8.34375 4.34373C6.26031 4.34373 4.17687 4.34341 2.09344 4.34404C1.73125 4.33779 1.3975 4.6256 1.35 4.98466ZM9.41406 4.35341C9.34937 4.38716 9.32781 4.46404 9.33312 4.53216C9.33437 5.13279 9.335 5.73248 9.33344 6.3331C10.2687 6.33373 11.2037 6.33341 12.1394 6.3331C11.9559 5.78341 11.7737 5.23341 11.5897 4.68373C11.5291 4.48341 11.3334 4.33435 11.1231 4.33435C10.6131 4.33154 10.1031 4.33466 9.59312 4.33279C9.53312 4.33404 9.47094 4.33154 9.41406 4.35341ZM1.34406 5.98404C1.34187 7.34404 1.34687 8.70435 1.34156 10.0644C1.30312 10.2719 1.39437 10.5003 1.58375 10.6022C1.73094 10.69 1.90812 10.6625 2.07125 10.6665C2.23344 10.0987 2.68281 9.6231 3.2425 9.4331C3.71406 9.26841 4.25344 9.31154 4.6925 9.5506C5.1275 9.78123 5.45781 10.1944 5.59531 10.6665C6.50781 10.6669 7.42062 10.6665 8.33312 10.6669C8.33437 10.2353 8.33187 9.80373 8.33437 9.37216C8.34969 9.21685 8.34219 9.0606 8.34375 8.90466C8.34375 7.93123 8.34375 6.95779 8.34375 5.98435C6.01062 5.98404 3.6775 5.98466 1.34406 5.98404ZM9.33344 7.33341C9.33437 8.44435 9.3325 9.5556 9.33344 10.6665C9.57937 10.6669 9.82531 10.6665 10.0712 10.6665C10.2353 10.0919 10.6937 9.61185 11.2625 9.42654C11.7362 9.26685 12.2759 9.31654 12.7122 9.56123C13.1375 9.79404 13.46 10.2015 13.5953 10.6665C13.7612 10.6669 13.9275 10.6662 14.0937 10.6672C14.1962 10.669 14.3031 10.6619 14.3956 10.6131C14.5647 10.5287 14.6741 10.3431 14.6666 10.1544C14.6662 9.48841 14.6675 8.82248 14.6659 8.15685C14.6678 7.83373 14.4625 7.52123 14.1625 7.39966C13.9841 7.31841 13.7847 7.33373 13.5944 7.33341C12.1741 7.33341 10.7537 7.3331 9.33344 7.33341ZM3.66344 10.3506C3.48125 10.3869 3.31312 10.4872 3.195 10.6303C2.92375 10.9465 2.94469 11.465 3.24375 11.7562C3.5425 12.0706 4.09094 12.0797 4.40156 11.7772C4.73281 11.4784 4.74937 10.9115 4.43812 10.5928C4.24531 10.3834 3.94062 10.2925 3.66344 10.3506ZM11.6612 10.3509C11.4644 10.3906 11.2844 10.5056 11.1659 10.6675C10.9147 10.9975 10.9616 11.5112 11.2744 11.7856C11.5906 12.0844 12.14 12.0653 12.435 11.7459C12.7391 11.4412 12.7419 10.8994 12.44 10.5922C12.2459 10.3828 11.9394 10.2922 11.6612 10.3509Z" fill="#18181B"/>
</svg>
