<svg width="16" height="16" viewBox="0 0 16 16" fill="none" xmlns="http://www.w3.org/2000/svg">
<path d="M1.99342 3.86845C2.59186 3.29627 3.42092 2.97752 4.24874 3.00002C6.64499 3.00002 9.04123 3.00002 11.4375 3.00002C11.7306 3.00158 12.0256 2.98939 12.3159 3.03752C13.0572 3.14845 13.7494 3.53877 14.235 4.10814C14.7225 4.67127 14.999 5.41095 14.9994 6.15564C15 7.71877 15.0009 9.2822 14.999 10.8453C14.9994 11.3891 14.6728 11.9119 14.1915 12.1616C13.9087 12.3185 13.579 12.3453 13.2619 12.3335C13.134 12.7703 12.8428 13.1575 12.4537 13.3944C12.0431 13.6513 11.5272 13.7306 11.0581 13.611C10.4334 13.4575 9.91311 12.9525 9.73874 12.3338C8.57967 12.3328 7.42092 12.3335 6.26186 12.3335C6.13405 12.77 5.84311 13.1572 5.45405 13.3944C5.0128 13.671 4.44936 13.7406 3.95374 13.5813C3.37467 13.401 2.90405 12.9169 2.73842 12.3338C2.52249 12.3344 2.30217 12.3394 2.09342 12.2753C1.60499 12.1378 1.20092 11.7381 1.06092 11.2503C1.01186 11.0885 0.997798 10.9185 0.999673 10.75C1.0003 9.34408 0.999986 7.93814 0.999986 6.53189C1.00124 6.26064 0.990923 5.98752 1.03217 5.71814C1.1303 5.01595 1.47749 4.35377 1.99342 3.86845ZM3.05874 4.30377C2.55842 4.5972 2.19092 5.1022 2.05967 5.66658C2.81749 5.66689 3.5753 5.66658 4.33311 5.66689C4.33374 5.11127 4.33311 4.55564 4.33342 4.00033C3.89124 3.98127 3.43905 4.0722 3.05874 4.30377ZM5.33342 4.00002C5.33342 4.55564 5.33311 5.11095 5.33342 5.66658C6.05561 5.66689 6.7778 5.66658 7.49999 5.66658C7.49999 5.11127 7.49999 4.55564 7.49999 4.00002C6.7778 4.00002 6.05561 4.00002 5.33342 4.00002ZM8.49999 4.00002C8.49999 4.55564 8.49999 5.11127 8.49999 5.66658C9.22217 5.66658 9.94436 5.66689 10.6665 5.66658C10.6669 5.11095 10.6665 4.55564 10.6665 4.00002C9.94436 4.00002 9.22217 4.00002 8.49999 4.00002ZM11.6665 4.00033C11.6669 4.55564 11.6662 5.11127 11.6669 5.66689C12.4247 5.66627 13.1828 5.66689 13.9406 5.66658C13.815 5.1322 13.4803 4.65064 13.0194 4.35189C12.6234 4.08658 12.139 3.97908 11.6665 4.00033ZM2.0003 6.66658C1.99967 8.04939 2.0003 9.4322 1.99999 10.8153C1.99124 11.0006 2.09342 11.1866 2.25811 11.2735C2.40467 11.3566 2.5778 11.3291 2.73811 11.3331C2.93561 10.6213 3.59592 10.07 4.3328 10.0085C4.33405 8.89439 4.33311 7.78064 4.33342 6.66658C3.55561 6.66658 2.7778 6.66689 2.0003 6.66658ZM5.33342 6.66689C5.33342 7.2222 5.33342 7.77752 5.33342 8.33314C6.0553 8.33377 6.77749 8.33283 7.49967 8.33346C7.5003 7.77783 7.5003 7.2222 7.49967 6.66658C6.77749 6.6672 6.0553 6.66627 5.33342 6.66689ZM8.5003 6.66658C8.49967 7.2222 8.49967 7.77783 8.5003 8.33346C9.22249 8.33283 9.94467 8.33377 10.6669 8.33314C10.6662 7.77752 10.6672 7.2222 10.6662 6.66658C9.94436 6.66658 9.22217 6.66689 8.5003 6.66658ZM11.6665 6.66658C11.6665 7.2222 11.6665 7.77783 11.6665 8.33346C12.4444 8.33346 13.2219 8.33314 13.9997 8.33346C14.0003 7.77783 14 7.2222 13.9997 6.66658C13.2222 6.66689 12.4444 6.66658 11.6665 6.66658ZM5.33342 9.33346C5.33342 9.62377 5.3328 9.91408 5.33374 10.2044C5.77936 10.4344 6.12405 10.8506 6.26217 11.3331C7.42092 11.3335 8.57967 11.3335 9.73842 11.3331C9.9028 10.755 10.3656 10.2725 10.939 10.0903C11.429 9.92752 11.9875 9.98971 12.4294 10.2572C12.83 10.4935 13.1319 10.8869 13.2619 11.3331C13.4022 11.3285 13.549 11.3516 13.6837 11.2997C13.8681 11.2303 14.0003 11.0422 13.999 10.8444C14.0012 10.3406 13.9994 9.83689 14 9.33346C11.1109 9.33346 8.22217 9.33314 5.33342 9.33346ZM4.40967 11.005C4.1528 11.0297 3.91249 11.1835 3.78436 11.4075C3.58061 11.746 3.65749 12.2238 3.96561 12.4738C4.2778 12.7447 4.7928 12.726 5.08217 12.43C5.36967 12.1553 5.4103 11.6722 5.17874 11.3503C5.01124 11.1053 4.70374 10.9706 4.40967 11.005ZM11.4112 11.005C11.1534 11.0291 10.9125 11.1831 10.784 11.4081C10.585 11.74 10.654 12.2063 10.949 12.4594C11.2544 12.7397 11.7715 12.7325 12.0684 12.4431C12.3669 12.1716 12.4144 11.6794 12.1803 11.3525C12.0131 11.1066 11.7056 10.971 11.4112 11.005Z" fill="#18181B"/>
</svg>
