<svg width="16" height="16" viewBox="0 0 16 16" fill="none" xmlns="http://www.w3.org/2000/svg">
<path d="M13.3563 1.57642L13.3563 1.57636C13.3434 1.56347 13.3223 1.56334 13.3092 1.57642L13.3563 1.57642ZM13.3563 1.57642L15.4897 3.70975L15.4897 3.70979C15.5027 3.72279 15.5027 3.74384 15.4897 3.75685L15.4897 3.75688L11.2842 7.96236C11.2412 8.00535 11.1915 8.04122 11.1369 8.0685C11.1369 8.06852 11.1369 8.06853 11.1369 8.06854L6.9477 10.1631L6.94763 10.1632C6.93496 10.1695 6.91948 10.1671 6.90922 10.1569C6.89908 10.1467 6.89656 10.1312 6.90298 10.1184L8.99761 5.92916C9.02485 5.87466 9.0607 5.82493 9.10375 5.78188L8.7502 5.42832L9.10375 5.78188L13.3092 1.57645L13.3563 1.57642ZM14.3444 12.8881C14.3661 12.6229 14.3661 12.2884 14.3661 11.84V7.67374L14.4328 7.60707V11.84V11.8621C14.4328 12.2986 14.4324 12.6297 14.4109 12.8935C14.3889 13.1625 14.3448 13.3648 14.2548 13.5415L14.2548 13.5416C14.0982 13.8488 13.8483 14.0987 13.541 14.2553L13.541 14.2553C13.3643 14.3453 13.1619 14.3894 12.893 14.4114C12.6292 14.4329 12.2981 14.4333 11.8616 14.4333H11.8395H5.22615H5.20411C4.76747 14.4333 4.43638 14.4329 4.17262 14.4114L14.3444 12.8881ZM14.3444 12.8881C14.3229 13.1523 14.28 13.3453 14.1954 13.5113L14.3444 12.8881ZM4.17798 2.72167L4.178 2.72166C4.44317 2.70001 4.77777 2.69998 5.22615 2.69998H9.39235L9.45902 2.63332H5.22615H5.20409H5.20408C4.7674 2.63331 4.43631 2.63368 4.17256 2.65523L4.17255 2.65523C3.90381 2.67718 3.70131 2.72132 3.52463 2.81134L3.52463 2.81134C3.2173 2.96793 2.96743 3.2178 2.81084 3.52512L2.81084 3.52514C2.72081 3.70181 2.67668 3.90431 2.65473 4.17306L2.65473 4.17307C2.63317 4.43682 2.6328 4.76795 2.63281 5.20461V5.20462V5.22665V11.84V11.8621C2.6328 12.2987 2.63317 12.6298 2.65473 12.8936L2.65473 12.8936C2.67668 13.1623 2.7208 13.3648 2.81084 13.5415L4.17798 2.72167ZM4.17798 2.72167C3.91345 2.74328 3.72067 2.78628 3.55492 2.87072L3.55488 2.87074M4.17798 2.72167L3.55488 2.87074M3.55488 2.87074C3.26011 3.02095 3.02045 3.26061 2.87024 3.55538L2.87022 3.55542M3.55488 2.87074L2.87022 3.55542M2.87022 3.55542C2.78577 3.72119 2.74278 3.91398 2.72117 4.17848L2.87022 3.55542ZM3.52459 14.2553L3.52471 14.2553C3.70127 14.3453 3.90366 14.3894 4.17254 14.4114L3.52459 14.2553ZM3.52459 14.2553C3.21732 14.0987 2.96744 13.8489 2.81085 13.5415L3.52459 14.2553ZM2.87022 13.5112C3.02044 13.8061 3.26007 14.0456 3.55465 14.1958L2.72117 4.17849C2.6995 4.44367 2.69948 4.77829 2.69948 5.22665V11.84C2.69948 12.2884 2.6995 12.6229 2.72117 12.8882L3.2192 12.8475L2.72117 12.8882C2.74278 13.1527 2.78577 13.3455 2.87022 13.5112ZM13.511 14.1958C13.8056 14.0456 14.0451 13.8061 14.1953 13.5115L13.511 14.1958ZM13.6864 2.00068L13.3328 1.64713L12.9793 2.00068L9.1509 5.82902L9.09352 5.88639L9.05724 5.95897L7.94977 8.17389L7.7886 8.49622L8.04343 8.75105L8.31506 9.02268L8.56988 9.27751L8.89222 9.11634L11.1071 8.00887L11.1797 7.97259L11.2371 7.91521L15.0655 4.08687L15.419 3.73332L15.0655 3.37976L13.6864 2.00068Z" fill="#020817" stroke="#0F172A"/>
</svg>
