<svg width="16" height="16" viewBox="0 0 16 16" fill="none" xmlns="http://www.w3.org/2000/svg">
<path d="M1.64876 3.42786C1.82939 3.35849 2.02376 3.33161 2.21657 3.33349C5.6972 3.33411 9.17751 3.33224 12.6578 3.33411C13.3394 3.3363 13.9966 3.75599 14.2853 4.37349C14.5816 5.02724 14.8688 5.68536 15.1613 6.34067C15.3009 6.64411 15.3475 6.98255 15.3334 7.31411C15.3325 8.39036 15.3363 9.4663 15.3316 10.5425C15.3225 11.2066 14.8163 11.8172 14.17 11.9607C13.9819 12.0057 13.7872 12.0007 13.5953 12C13.4672 12.4394 13.1725 12.8279 12.7806 13.0654C12.3569 13.3282 11.8219 13.4013 11.3425 13.2647C10.7381 13.0982 10.2431 12.6016 10.0709 11.9997C8.69032 12.0004 7.30939 11.9997 5.92845 12C5.79751 12.4504 5.49095 12.8472 5.08501 13.0825C4.62157 13.3591 4.0322 13.4091 3.52845 13.216C2.99064 13.016 2.5622 12.5516 2.40501 12C2.20751 12 2.00689 12.0075 1.8147 11.9554C1.34251 11.8444 0.940011 11.486 0.767199 11.0341C0.691574 10.8441 0.663761 10.6388 0.666574 10.4357C0.667511 8.5613 0.665011 6.68692 0.667824 4.81286C0.668449 4.2063 1.08095 3.6338 1.64876 3.42786ZM1.66751 4.81505C1.66595 5.43224 1.66626 6.04974 1.66751 6.66724C2.77814 6.66599 3.88907 6.66692 5.00001 6.66661C5.00001 5.8888 5.00001 5.1113 5.00001 4.33349C4.05251 4.3338 3.1047 4.33255 2.1572 4.33411C1.89876 4.32911 1.6672 4.5563 1.66751 4.81505ZM6.00001 4.33349C6.00001 5.1113 6.00001 5.8888 6.00001 6.66661C7.33345 6.66661 8.66657 6.66661 10 6.66661C10 5.8888 10 5.1113 10 4.33349C8.66657 4.33349 7.33345 4.33349 6.00001 4.33349ZM11 4.33349C11 5.1113 11 5.8888 11 6.66661C12.0706 6.66661 13.1409 6.66692 14.2116 6.66661C13.9384 6.05255 13.6672 5.43786 13.3925 4.82442C13.2584 4.51755 12.9288 4.31755 12.595 4.33349C12.0634 4.33349 11.5316 4.33317 11 4.33349ZM1.66657 7.66692C1.66689 8.61224 1.66626 9.55786 1.6672 10.5032C1.66376 10.6991 1.78907 10.89 1.97157 10.9619C2.10845 11.0194 2.26032 10.995 2.4047 11C2.56032 10.4575 2.97657 9.99724 3.50345 9.79349C4.01907 9.5863 4.6297 9.63755 5.10345 9.92817C5.50095 10.1647 5.79939 10.5569 5.92907 11.0004C7.30939 11.0004 8.6897 10.9991 10.07 11.0007C10.2316 10.4429 10.6663 9.97192 11.2144 9.77661C11.7116 9.59286 12.2888 9.64411 12.7453 9.91317C13.1547 10.1485 13.4634 10.5472 13.5953 11C13.7388 10.995 13.8897 11.0191 14.0263 10.9629C14.2094 10.89 14.3366 10.6997 14.3328 10.5022C14.3334 10.1125 14.3338 9.72255 14.3325 9.33286C14.1572 9.34224 13.9606 9.33599 13.8266 9.20536C13.605 9.0188 13.6069 8.64099 13.8313 8.45724C13.9653 8.32911 14.1594 8.32567 14.3331 8.33349C14.3334 8.1113 14.3334 7.8888 14.3331 7.66661C10.1109 7.66692 5.88907 7.66692 1.66657 7.66692ZM3.91751 10.7041C3.63814 10.7872 3.41595 11.0307 3.35689 11.316C3.2822 11.6391 3.41626 12.0019 3.69376 12.1869C4.0272 12.4257 4.53314 12.3638 4.79532 12.0469C5.02939 11.7804 5.06157 11.3625 4.87439 11.0619C4.68751 10.74 4.26939 10.59 3.91751 10.7041ZM11.5744 10.7069C11.2244 10.8122 10.9778 11.1713 11.0013 11.5357C11.0084 11.8922 11.2734 12.2235 11.6209 12.306C11.9553 12.3972 12.3391 12.2569 12.5256 11.9625C12.7628 11.6147 12.6831 11.0944 12.3447 10.8407C12.1309 10.6716 11.8325 10.6241 11.5744 10.7069Z" fill="#18181B"/>
<path d="M6.48469 7.89225C6.58969 7.826 6.72719 7.8235 6.84 7.871C7.43031 8.11819 8.01906 8.36787 8.60938 8.61444C8.68281 8.64694 8.76094 8.68162 8.80875 8.74944C8.93688 8.89819 8.92156 9.14537 8.77469 9.27631C8.62219 9.41944 8.48125 9.57537 8.32125 9.71069C8.6775 9.86412 9.03469 10.0151 9.39094 10.1691C9.54594 10.2422 9.63781 10.4254 9.60219 10.5935C9.56906 10.8301 9.28375 10.9801 9.06813 10.8801C8.53281 10.6519 7.99813 10.4222 7.46344 10.1926C7.24219 10.1013 7.17031 9.78819 7.32 9.60475C7.47531 9.43787 7.64563 9.28569 7.80906 9.12694C7.38531 8.94694 6.96094 8.76944 6.53688 8.591C6.41 8.53881 6.31125 8.416 6.29625 8.2785C6.27531 8.12819 6.3525 7.96725 6.48469 7.89225Z" fill="#18181B"/>
</svg>
