<svg width="15" height="16" viewBox="0 0 15 16" fill="none" xmlns="http://www.w3.org/2000/svg">
<path d="M1.33337 14.6666H9.33337M2.00004 5.99992H8.66671M8.66671 14.6666V2.66659C8.66671 2.31296 8.52623 1.97382 8.27618 1.72378C8.02613 1.47373 7.687 1.33325 7.33337 1.33325H3.33337C2.97975 1.33325 2.64061 1.47373 2.39056 1.72378C2.14052 1.97382 2.00004 2.31296 2.00004 2.66659V14.6666M8.66671 8.66658H10C10.3537 8.66658 10.6928 8.80706 10.9428 9.05711C11.1929 9.30716 11.3334 9.6463 11.3334 9.99992V11.3333C11.3334 11.6869 11.4739 12.026 11.7239 12.2761C11.9739 12.5261 12.3131 12.6666 12.6667 12.6666C13.0203 12.6666 13.3595 12.5261 13.6095 12.2761C13.8596 12.026 14 11.6869 14 11.3333V6.55325C14.0002 6.37731 13.9655 6.20308 13.898 6.04061C13.8305 5.87813 13.7315 5.73062 13.6067 5.60658L11.3334 3.33325" stroke="#020817" stroke-opacity="0.5" stroke-linecap="round" stroke-linejoin="round"/>
</svg>
