<svg width="16" height="16" viewBox="0 0 16 16" fill="none" xmlns="http://www.w3.org/2000/svg">
<path d="M5.49902 2C3.56952 2 2 3.57098 2 5.50098V10.501C2 12.4305 3.57098 14 5.50098 14H10.501C12.4305 14 14 12.429 14 10.499V5.49902C14 3.56952 12.429 2 10.499 2H5.49902ZM11.5 4C11.776 4 12 4.224 12 4.5C12 4.776 11.776 5 11.5 5C11.224 5 11 4.776 11 4.5C11 4.224 11.224 4 11.5 4ZM8 5C9.6545 5 11 6.3455 11 8C11 9.6545 9.6545 11 8 11C6.3455 11 5 9.6545 5 8C5 6.3455 6.3455 5 8 5ZM8 6C7.46957 6 6.96086 6.21071 6.58579 6.58579C6.21071 6.96086 6 7.46957 6 8C6 8.53043 6.21071 9.03914 6.58579 9.41421C6.96086 9.78929 7.46957 10 8 10C8.53043 10 9.03914 9.78929 9.41421 9.41421C9.78929 9.03914 10 8.53043 10 8C10 7.46957 9.78929 6.96086 9.41421 6.58579C9.03914 6.21071 8.53043 6 8 6Z" fill="#18181B"/>
</svg>
