<svg width="16" height="16" viewBox="0 0 16 16" fill="none" xmlns="http://www.w3.org/2000/svg">
<path d="M1.06667 2.69997H0.799765C0.879298 2.65742 0.970165 2.6333 1.06667 2.6333H14.9333C15.0298 2.6333 15.1207 2.65742 15.2002 2.69997H14.9333H1.06667ZM0.5 3.19997C0.5 3.10347 0.524123 3.0126 0.566667 2.93307V3.19997V4.18657V4.32564V4.68706V5.23514V12.8V13.0669C0.524122 12.9873 0.5 12.8965 0.5 12.8V3.19997ZM15.4333 4.68706V4.32564V4.18657V3.19997V2.93306C15.4759 3.01259 15.5 3.10346 15.5 3.19997V12.8C15.5 12.8965 15.4759 12.9873 15.4333 13.0669V12.8V5.23514V4.68706ZM14.9333 13.3H15.2003C15.1207 13.3425 15.0298 13.3666 14.9333 13.3666H1.06667C0.970161 13.3666 0.879291 13.3425 0.799757 13.3H1.06667H14.9333Z" fill="#020817" stroke="#0F172A"/>
</svg>
