<svg width="17" height="16" viewBox="0 0 17 16" fill="none" xmlns="http://www.w3.org/2000/svg">
<path d="M12.4667 5.13328C12.6618 4.94539 12.8998 4.80789 13.16 4.7327C13.4203 4.6575 13.6949 4.64687 13.9602 4.70173C14.2255 4.7566 14.4734 4.87529 14.6825 5.04755C14.8916 5.2198 15.0555 5.44042 15.1601 5.6903C15.2647 5.94018 15.3068 6.2118 15.2828 6.48162C15.2588 6.75145 15.1694 7.01135 15.0223 7.23883C14.8752 7.46631 14.6749 7.65451 14.4386 7.78713C14.2024 7.91975 13.9375 7.9928 13.6667 7.99995H2M7.06667 3.06662C7.22112 2.90909 7.41225 2.79234 7.62292 2.72685C7.83359 2.66136 8.05722 2.64917 8.27377 2.69137C8.49031 2.73357 8.693 2.82884 8.86366 2.96864C9.03433 3.10845 9.16763 3.28842 9.25163 3.49241C9.33563 3.69641 9.3677 3.91807 9.34496 4.13751C9.32222 4.35695 9.24539 4.56732 9.12134 4.74976C8.9973 4.9322 8.82992 5.08101 8.63422 5.18285C8.43851 5.2847 8.2206 5.33638 8 5.33328H2M9.06667 12.9333C9.22112 13.0908 9.41225 13.2076 9.62292 13.273C9.83359 13.3385 10.0572 13.3507 10.2738 13.3085C10.4903 13.2663 10.693 13.1711 10.8637 13.0313C11.0343 12.8915 11.1676 12.7115 11.2516 12.5075C11.3356 12.3035 11.3677 12.0818 11.345 11.8624C11.3222 11.6429 11.2454 11.4326 11.1213 11.2501C10.9973 11.0677 10.8299 10.9189 10.6342 10.817C10.4385 10.7152 10.2206 10.6635 10 10.6666H2" stroke="#020817" stroke-opacity="0.5" stroke-linecap="round" stroke-linejoin="round"/>
</svg>
