<svg width="16" height="16" viewBox="0 0 16 16" fill="none" xmlns="http://www.w3.org/2000/svg">
<path d="M4.09346 3.33344C5.06283 3.33437 6.03252 3.33125 7.0019 3.33344C7.22002 3.33531 7.43846 3.32656 7.65627 3.34344C8.08315 3.34437 8.51033 3.34312 8.93752 3.34406C9.08846 3.34219 9.23408 3.40125 9.35314 3.49187C10.2525 4.17562 11.1525 4.85844 12.0519 5.54219C12.0931 5.575 12.14 5.6 12.1878 5.62219C12.7181 5.86312 13.2475 6.10625 13.7775 6.34781C13.9716 6.43469 14.1619 6.53062 14.3641 6.59875C14.9263 6.80344 15.3269 7.37531 15.3322 7.97312C15.3341 8.41687 15.3344 8.86062 15.3322 9.30437C15.3231 9.865 15.0372 10.4116 14.5844 10.7412C14.2997 10.9531 13.9525 11.0475 13.631 11.1869C13.535 11.6656 13.2416 12.1 12.8322 12.3659C12.4172 12.6419 11.8863 12.7344 11.4025 12.6137C10.7722 12.4644 10.2481 11.9556 10.0713 11.3334C8.57908 11.3334 7.08721 11.3331 5.59533 11.3334C5.45815 11.8056 5.12721 12.2178 4.69283 12.4487C4.25627 12.6866 3.72065 12.7312 3.25096 12.5691C2.62908 12.3634 2.14596 11.8019 2.03096 11.1575C1.82002 11.0466 1.59596 10.9572 1.40502 10.8119C0.955958 10.4809 0.674708 9.93562 0.667833 9.37719C0.665333 8.77219 0.66752 8.16719 0.666583 7.5625C0.668458 7.2825 0.654395 7.00031 0.707208 6.72375C0.775958 6.335 0.941583 5.965 1.1794 5.65031C1.57658 5.12 1.97377 4.59 2.37158 4.06C2.65471 3.6825 3.08971 3.42312 3.55658 3.35406C3.73408 3.325 3.9144 3.335 4.09346 3.33344ZM3.16533 4.66906C2.83221 5.1125 2.49971 5.55625 2.1669 5.99969C3.33346 6.00031 4.50002 6 5.66658 6C5.66658 5.44437 5.6669 4.88906 5.66658 4.33344C5.04908 4.33375 4.4319 4.3325 3.8144 4.33406C3.56096 4.33594 3.31565 4.46594 3.16533 4.66906ZM6.66658 4.37531C6.6669 4.91687 6.6669 5.45812 6.66658 5.99969C8.09158 5.99906 9.5169 6.00219 10.9422 5.99812C10.2335 5.45219 9.52002 4.91187 8.80502 4.37406C8.09221 4.37625 7.3794 4.37406 6.66658 4.37531ZM1.66815 7.15812C1.66533 7.88625 1.66658 8.61469 1.66721 9.34281C1.66283 9.66406 1.86502 9.965 2.15158 10.1031C2.35221 9.66062 2.72377 9.29594 3.17971 9.1225C3.69377 8.92031 4.2994 8.97344 4.77065 9.26187C5.16783 9.49844 5.46596 9.89031 5.59565 10.3334C7.08815 10.3322 8.58065 10.3353 10.0731 10.3319C10.2228 9.80062 10.6266 9.35062 11.136 9.14031C11.6016 8.94375 12.1494 8.95562 12.6056 9.17344C13.0222 9.36781 13.3566 9.72437 13.5316 10.1487C13.695 10.0784 13.8731 10.0319 14.0144 9.91875C14.2169 9.7625 14.336 9.50812 14.3331 9.25312C14.3322 8.82875 14.3356 8.40437 14.3316 7.98C14.321 7.8575 14.285 7.70406 14.1575 7.65437C13.6928 7.44375 13.2294 7.23062 12.765 7.01875C12.7025 6.98719 12.63 7.00344 12.5631 6.99969C8.98877 7.00094 5.41471 6.99906 1.84033 7.00062C1.75065 6.99187 1.66471 7.06687 1.66815 7.15812ZM3.63971 10.0225C3.44721 10.0669 3.27252 10.1831 3.15877 10.345C2.90315 10.6919 2.97471 11.2328 3.32221 11.4919C3.65565 11.7628 4.19565 11.7097 4.46658 11.3753C4.74939 11.0522 4.72158 10.5128 4.40252 10.2237C4.20377 10.0331 3.90627 9.95906 3.63971 10.0225ZM11.6419 10.0219C11.4241 10.0709 11.2297 10.2134 11.1181 10.4069C10.9081 10.7534 10.9953 11.2472 11.3213 11.4919C11.6491 11.7572 12.1766 11.7128 12.4519 11.3919C12.7485 11.07 12.7253 10.5156 12.4003 10.2219C12.2022 10.0328 11.9072 9.95937 11.6419 10.0219Z" fill="#18181B"/>
</svg>
