<svg width="16" height="16" viewBox="0 0 16 16" fill="none" xmlns="http://www.w3.org/2000/svg">
<path d="M1.90373 3.18526C2.14716 2.9337 2.4931 2.78714 2.84279 2.78151C6.30154 2.78058 9.7606 2.78183 13.2194 2.78089C13.5869 2.77995 13.9528 2.9337 14.2056 3.2012C14.4478 3.44339 14.5881 3.78183 14.5934 4.12401C14.5944 6.70776 14.5931 9.29183 14.594 11.8756C14.5953 12.2506 14.4344 12.6231 14.1581 12.8771C13.8869 13.1421 13.5006 13.2706 13.1247 13.2503C13.124 13.5325 13.1272 13.8149 13.1234 14.0971C13.1128 14.3518 12.8787 14.5671 12.625 14.5634C12.3706 14.5684 12.1381 14.3512 12.1265 14.0971C12.1228 13.8146 12.1259 13.5321 12.1253 13.2496C11.5615 13.2496 10.9978 13.2509 10.434 13.2493C10.2969 13.7487 9.94373 14.1849 9.48029 14.4178C9.0606 14.6375 8.5556 14.6834 8.10123 14.5506C7.6031 14.4103 7.17341 14.0487 6.94654 13.5843C6.88748 13.4765 6.85623 13.3571 6.80841 13.2446L6.7806 13.2375C6.73091 13.3403 6.70248 13.4528 6.64841 13.554C6.40998 14.0365 5.95029 14.4037 5.42529 14.5262C4.95185 14.6396 4.43404 14.5509 4.02591 14.2846C3.65185 14.0459 3.37091 13.6678 3.24779 13.2418C3.05591 13.2421 2.86154 13.2484 2.67404 13.2021C2.1756 13.0896 1.75248 12.7025 1.59029 12.2187C1.51123 11.9987 1.50748 11.7621 1.49966 11.5312C1.50404 11.1353 1.49091 10.739 1.50998 10.3434C1.50966 8.95808 1.50935 7.57276 1.50998 6.18745C1.48966 5.52089 1.50466 4.85401 1.49966 4.18714C1.49123 3.81714 1.63779 3.44401 1.90373 3.18526ZM2.49998 4.15339C2.49998 4.72745 2.49935 5.30151 2.5006 5.87558C2.51498 6.08339 2.50873 6.29183 2.50966 6.49995C2.50935 8.22964 2.51029 9.95933 2.50966 11.6887C2.50466 11.8512 2.53966 12.0321 2.67498 12.1375C2.83529 12.269 3.05404 12.2378 3.24654 12.2421C3.41216 11.6684 3.86716 11.1862 4.43654 11.0015C4.87623 10.8546 5.37216 10.8837 5.78966 11.0862C6.22841 11.2943 6.5806 11.6821 6.73716 12.1428C6.75404 12.1834 6.7581 12.2384 6.80935 12.2503C6.86498 12.1175 6.9031 11.9771 6.97748 11.8528C7.23341 11.379 7.70279 11.0275 8.22998 10.9171C8.69373 10.815 9.19623 10.8996 9.60091 11.1481C10.0062 11.3921 10.305 11.7965 10.435 12.2503C11.3637 12.249 12.2928 12.2509 13.2215 12.2493C13.4219 12.2553 13.5972 12.0765 13.5937 11.8778C13.5934 9.30308 13.5947 6.72808 13.5931 4.15339C13.599 3.95276 13.4197 3.77714 13.2206 3.7812C9.77091 3.78151 6.32154 3.78026 2.87216 3.78183C2.67185 3.77589 2.49654 3.95433 2.49998 4.15339ZM8.50904 11.8821C8.08779 11.9318 7.73935 12.3237 7.74935 12.75C7.73935 13.205 8.13716 13.62 8.5931 13.6246C9.08216 13.6559 9.53248 13.2087 9.49998 12.7184C9.49498 12.2203 9.00216 11.8006 8.50904 11.8821ZM4.91591 11.9134C4.73279 11.9331 4.55685 12.0153 4.42623 12.145C4.11529 12.4418 4.09841 12.9821 4.38935 13.2987C4.66435 13.6228 5.19529 13.6665 5.52341 13.3987C5.86904 13.1384 5.94029 12.5999 5.68466 12.2534C5.5156 12.0103 5.20873 11.8784 4.91591 11.9134Z" fill="#18181B"/>
</svg>
