<svg width="16" height="16" viewBox="0 0 16 16" fill="none" xmlns="http://www.w3.org/2000/svg">
<path d="M2.63812 3.04436C2.71468 2.86873 2.90093 2.74811 3.0925 2.74998C6.45718 2.74998 9.82187 2.74998 13.1866 2.74998C13.3881 2.74561 13.5806 2.87904 13.6522 3.06654C13.9931 3.85467 14.3137 4.65311 14.5659 5.47467C14.8012 6.24279 14.9706 7.03717 14.9962 7.84248C15.0206 8.52061 14.9344 9.19998 14.7709 9.8578C14.5266 10.8387 14.1375 11.7756 13.74 12.7025C13.6753 12.834 13.64 12.9884 13.5244 13.0875C13.4506 13.1603 13.3497 13.1962 13.2503 13.2184C13.2491 13.4903 13.2506 13.7622 13.2497 14.034C13.2528 14.2331 13.1203 14.4247 12.9347 14.4953C12.7053 14.5956 12.4141 14.484 12.3059 14.26C12.2631 14.18 12.2466 14.0894 12.2497 13.9994C12.2503 13.739 12.25 13.479 12.25 13.2187C11.6859 13.2187 11.1219 13.2184 10.5578 13.2187C10.4203 13.7269 10.0559 14.1675 9.58281 14.3978C9.15906 14.6128 8.65125 14.6515 8.19812 14.5109C7.62843 14.3415 7.15812 13.8797 6.97312 13.3159C6.95562 13.2737 6.95093 13.2187 6.90437 13.1969C6.77062 13.6378 6.48281 14.0337 6.08593 14.2725C5.62906 14.5594 5.04156 14.6222 4.53343 14.4409C3.98062 14.2503 3.53812 13.7794 3.37468 13.2187C3.26968 13.2175 3.16468 13.2215 3.05968 13.2172C2.86218 13.2084 2.685 13.0656 2.61937 12.8815C2.19437 11.9006 1.77531 10.9103 1.51375 9.87123C1.32375 9.11717 1.23968 8.33373 1.30031 7.55717C1.39031 6.32998 1.78781 5.15248 2.23343 4.01404C2.36437 3.68904 2.49875 3.36561 2.63812 3.04436ZM3.41812 3.75498C3.03812 4.67936 2.66968 5.61498 2.45312 6.59342C2.31156 7.22748 2.24593 7.88155 2.29937 8.53061C2.40156 9.80186 2.91125 10.9875 3.38906 12.1544C3.55968 11.6284 3.97437 11.1872 4.49375 10.9944C4.96437 10.815 5.51031 10.844 5.9575 11.0765C6.41093 11.3037 6.75687 11.7269 6.89781 12.2134C6.90937 12.2119 6.93281 12.209 6.94468 12.2078C7.12093 11.5644 7.6675 11.0422 8.3175 10.894C8.79187 10.7803 9.31031 10.8606 9.72562 11.1169C10.1309 11.3606 10.4297 11.7653 10.56 12.2187C11.3266 12.2184 12.0931 12.2194 12.8594 12.2181C13.3 11.1794 13.7425 10.1253 13.9256 9.0053C14.0687 8.13842 13.9953 7.2478 13.7834 6.39842C13.5612 5.48842 13.2178 4.61404 12.8594 3.75061C10.7387 3.74936 8.61843 3.75029 6.49781 3.74998C5.47124 3.75342 4.44437 3.74342 3.41812 3.75498ZM8.54531 11.8672C8.16218 11.9559 7.86625 12.3244 7.87437 12.7197C7.86656 13.15 8.22125 13.5494 8.65062 13.5881C9.09968 13.6512 9.555 13.3044 9.61468 12.855C9.67093 12.5309 9.51999 12.1881 9.25156 12.0012C9.04999 11.8575 8.78531 11.8097 8.54531 11.8672ZM4.95093 11.8972C4.7425 11.9422 4.55437 12.0722 4.43906 12.2519C4.21781 12.589 4.28 13.0859 4.59343 13.3459C4.91062 13.6278 5.44312 13.604 5.73156 13.2919C6.04281 12.9815 6.03875 12.425 5.72281 12.1194C5.52656 11.9181 5.22374 11.8353 4.95093 11.8972Z" fill="#18181B"/>
<path d="M3.63813 5.05183C3.94344 4.94683 4.29188 5.20902 4.28094 5.52965C4.28125 7.09308 4.28125 8.65652 4.28125 10.22C4.28719 10.4631 4.08813 10.6856 3.84813 10.7146C3.62625 10.749 3.39407 10.6112 3.31625 10.4012C3.26875 10.2943 3.28313 10.175 3.28125 10.0615C3.28094 8.57215 3.28188 7.08308 3.28063 5.59371C3.25469 5.35746 3.40782 5.11652 3.63813 5.05183Z" fill="#18181B"/>
<path d="M12.3578 5.05155C12.5884 4.97655 12.86 5.10217 12.9544 5.32467C13.0119 5.43592 12.9994 5.56405 13 5.68467C12.9997 7.19655 13.0003 8.70842 13 10.22C13.0012 10.3581 12.9406 10.495 12.8375 10.5869C12.6787 10.7384 12.4162 10.7631 12.2328 10.6415C12.0909 10.5522 11.9984 10.3887 12.0003 10.2206C12 8.65748 12 7.09467 12 5.53155C11.995 5.31498 12.1509 5.11092 12.3578 5.05155Z" fill="#18181B"/>
</svg>
