<svg width="16" height="16" viewBox="0 0 16 16" fill="none" xmlns="http://www.w3.org/2000/svg">
<path d="M8 2C11.3138 2 14 4.68617 14 8C14 11.3138 11.3138 14 8 14C4.68617 14 2 11.3138 2 8C2 4.68617 4.68617 2 8 2ZM10.0697 10.4457C10.1801 10.107 10.6971 6.73243 10.761 6.06748C10.7803 5.86609 10.7167 5.73226 10.592 5.67252C10.4412 5.6 10.2179 5.63626 9.95887 5.72965C9.60356 5.85774 5.0613 7.78635 4.79887 7.898C4.55 8.00365 4.3147 8.11896 4.3147 8.28591C4.3147 8.4033 4.38435 8.4693 4.57635 8.53791C4.77617 8.60913 5.27939 8.76174 5.57652 8.84365C5.8627 8.9227 6.18852 8.85409 6.37113 8.74061C6.5647 8.62035 8.79852 7.12557 8.95896 6.99461C9.11913 6.86365 9.24696 7.03139 9.116 7.16261C8.98504 7.29357 7.45165 8.78183 7.24948 8.98791C7.004 9.23809 7.17826 9.49739 7.34287 9.60122C7.53096 9.71965 8.88356 10.627 9.0873 10.7725C9.29104 10.9181 9.49765 10.9841 9.68678 10.9841C9.87591 10.9841 9.97556 10.735 10.0697 10.4457Z" fill="#18181B"/>
</svg>
