<svg width="16" height="16" viewBox="0 0 16 16" fill="none" xmlns="http://www.w3.org/2000/svg">
<path d="M4 2C2.90335 2 2 2.90335 2 4V12C2 13.0966 2.90335 14 4 14H12C13.0966 14 14 13.0966 14 12V4C14 2.90335 13.0966 2 12 2H4ZM4 3.33333H12C12.3767 3.33333 12.6667 3.62331 12.6667 4V12C12.6667 12.3767 12.3767 12.6667 12 12.6667H4C3.62331 12.6667 3.33333 12.3767 3.33333 12V4C3.33333 3.62331 3.62331 3.33333 4 3.33333ZM8 4.66667V9.33333C8 9.71002 7.71002 10 7.33333 10C6.95665 10 6.66667 9.71002 6.66667 9.33333C6.66667 8.95665 6.95665 8.66667 7.33333 8.66667V7.33333C6.23669 7.33333 5.33333 8.23669 5.33333 9.33333C5.33333 10.43 6.23669 11.3333 7.33333 11.3333C8.42998 11.3333 9.33333 10.43 9.33333 9.33333V6.82161C9.7441 7.11423 10.1727 7.33333 10.6667 7.33333V6C10.6351 6 10.1751 5.85396 9.85417 5.57422C9.53322 5.29448 9.33333 4.94333 9.33333 4.66667H8Z" fill="#18181B"/>
</svg>
