<svg width="16" height="16" viewBox="0 0 16 16" fill="none" xmlns="http://www.w3.org/2000/svg">
<path d="M1.14815 3.52316C1.38815 3.01285 1.93283 2.66254 2.49846 2.66723C5.5819 2.66566 8.66533 2.66723 11.7485 2.6666C11.9178 2.6641 12.0885 2.67473 12.2531 2.71691C12.865 2.85785 13.3828 3.33691 13.575 3.9341C13.631 4.10691 13.6638 4.28754 13.666 4.46973C13.67 4.99316 13.6606 5.51816 13.6725 6.04035C13.9656 6.56129 14.265 7.07848 14.5603 7.59785C14.701 7.85004 14.8656 8.0941 14.9363 8.37785C15.0216 8.6716 14.9963 8.97941 15 9.28098C14.9988 9.81285 15.0025 10.3444 14.9981 10.8763C14.9878 11.4688 14.5863 12.0254 14.0331 12.2329C13.7891 12.3335 13.5216 12.3385 13.2616 12.3338C13.1341 12.7713 12.8416 13.1588 12.4519 13.3957C12.0375 13.6541 11.5166 13.7316 11.0447 13.6075C10.426 13.4504 9.91221 12.9482 9.73846 12.3338C8.57971 12.3329 7.42065 12.3332 6.26158 12.3338C6.13408 12.7707 5.84221 13.1579 5.45283 13.395C5.03846 13.6541 4.51658 13.7319 4.04408 13.6075C3.42533 13.45 2.91221 12.9479 2.73846 12.3338C2.53221 12.3338 2.32252 12.34 2.1219 12.2832C1.65221 12.1616 1.25471 11.7975 1.09065 11.341C1.02408 11.1622 0.997834 10.9704 1.00002 10.7804C1.00065 8.58254 0.998771 6.38504 1.00033 4.18754C0.999396 3.95879 1.04721 3.7291 1.14815 3.52316ZM2.00252 4.12223C1.99658 4.52598 2.00158 4.92973 2.00033 5.33348C3.00002 5.33348 3.99971 5.33316 4.9994 5.33379C5.00033 4.77785 5.00002 4.22223 4.99971 3.6666C4.16565 3.66723 3.33158 3.66598 2.49783 3.66691C2.24658 3.65973 2.01471 3.87066 2.00252 4.12223ZM6.00033 3.6666C5.99971 4.22223 5.99971 4.77785 6.00033 5.33348C7.00002 5.33316 8.00002 5.33316 8.99971 5.33348C9.00002 4.77785 9.00065 4.22191 8.9994 3.66629C7.99971 3.66723 7.00002 3.6666 6.00033 3.6666ZM10.0003 3.6666C9.99971 4.22223 9.99971 4.77785 10.0003 5.33348C10.8891 5.33285 11.7778 5.3341 12.6669 5.33285C12.6628 5.02504 12.6741 4.71691 12.661 4.40941C12.63 4.01316 12.2756 3.67785 11.8781 3.66879C11.2522 3.66379 10.6263 3.66816 10.0003 3.6666ZM2.00002 6.33348C2.00002 6.8891 2.00002 7.44441 2.00002 8.00004C3.00002 8.00004 4.00002 8.00004 5.00002 8.00004C5.00002 7.44441 5.00002 6.88879 5.00002 6.33348C4.00002 6.33348 3.00002 6.33348 2.00002 6.33348ZM6.00002 6.33348C6.00002 6.8891 6.00002 7.44441 6.00002 8.00004C7.00002 8.00004 8.00002 8.00004 9.00002 8.00004C9.00002 7.44441 9.00002 6.88879 9.00002 6.33348C8.00002 6.33348 7.00002 6.33316 6.00002 6.33348ZM10 6.33348C10 6.88879 10 7.44441 10 8.00004C11.2128 8.00004 12.4256 8.00004 13.6385 8.00004C13.3253 7.44379 12.9966 6.89566 12.6947 6.33348C11.7963 6.33316 10.8981 6.33348 10 6.33348ZM2.00002 9.00004C2.00065 9.61566 1.99877 10.231 2.00096 10.8466C2.00065 11.0363 2.12221 11.2188 2.2969 11.2922C2.43627 11.3535 2.59096 11.3288 2.73815 11.3332C2.90283 10.755 3.36627 10.2729 3.9394 10.09C4.45783 9.91723 5.05315 9.9991 5.50627 10.3054C5.8694 10.5444 6.14002 10.9163 6.2619 11.3332C7.42065 11.3335 8.5794 11.3335 9.73846 11.3332C9.90502 10.7463 10.3803 10.2585 10.965 10.0822C11.4775 9.91973 12.0613 10.0044 12.5069 10.3057C12.8697 10.5447 13.14 10.9163 13.2619 11.3332C13.4035 11.3288 13.5513 11.3516 13.6866 11.2988C13.87 11.2282 14.0006 11.0407 13.9991 10.8435C14.0013 10.2291 13.9994 9.61441 14 9.00004C10 9.00004 6.00002 9.00035 2.00002 9.00004ZM4.4069 11.0054C4.17283 11.0294 3.95158 11.1588 3.81877 11.3535C3.58533 11.6804 3.63346 12.1722 3.93127 12.4432C4.22908 12.7332 4.7469 12.7394 5.05221 12.4582C5.36377 12.19 5.4194 11.6863 5.18065 11.3535C5.01315 11.1054 4.70283 10.9697 4.4069 11.0054ZM11.296 11.0247C10.951 11.1035 10.6835 11.4263 10.6688 11.7797C10.6416 12.1182 10.8438 12.461 11.1572 12.5941C11.4963 12.75 11.9341 12.6466 12.1575 12.345C12.4072 12.0288 12.3806 11.5338 12.0947 11.2491C11.8938 11.0379 11.5772 10.9541 11.296 11.0247Z" fill="#18181B"/>
</svg>
