<svg width="16" height="16" viewBox="0 0 16 16" fill="none" xmlns="http://www.w3.org/2000/svg">
<path d="M2.04467 3.16935C2.29467 2.91935 2.64686 2.77872 2.99967 2.78091C6.19779 2.78122 9.39623 2.78122 12.5947 2.78091C12.9619 2.77997 13.3278 2.93403 13.5806 3.20091C13.8303 3.4506 13.9712 3.80278 13.969 4.1556C13.9687 6.7081 13.9684 9.26091 13.969 11.8134C13.9697 11.9287 13.9506 12.0428 13.9287 12.1556C14.1203 12.1584 14.3119 12.1531 14.5034 12.1578C14.7578 12.1681 14.9734 12.4025 14.9697 12.6562C14.9747 12.9106 14.7572 13.1431 14.5031 13.155C14.3203 13.16 14.1372 13.1522 13.954 13.1587C13.8394 13.7043 13.4597 14.1843 12.9594 14.4284C12.56 14.6309 12.0859 14.6781 11.6531 14.5647C10.9934 14.4028 10.4556 13.849 10.3015 13.189C9.16436 13.1878 8.02686 13.1837 6.88967 13.1912C6.76061 13.6484 6.43936 14.0447 6.02592 14.2768C5.60623 14.5175 5.08779 14.5768 4.62436 14.4387C4.02748 14.2684 3.54311 13.774 3.37154 13.1793C3.17873 13.1793 2.98342 13.1865 2.79498 13.1387C2.29842 13.025 1.87686 12.639 1.71529 12.1565C1.63592 11.9362 1.63248 11.6997 1.62467 11.4687C1.62904 11.0728 1.61561 10.6765 1.63498 10.2812C1.63467 9.29153 1.63498 8.30185 1.63467 7.31247C1.63154 7.0106 1.64311 6.70841 1.62529 6.40685C1.62436 5.65622 1.62561 4.9056 1.62467 4.15466C1.62373 3.78747 1.77779 3.42185 2.04467 3.16935ZM2.62498 4.15341C2.62936 4.79997 2.61467 5.44716 2.63498 6.09372C2.63404 7.93778 2.63561 9.78216 2.63467 11.6265C2.62904 11.7887 2.66498 11.9697 2.79998 12.075C2.95998 12.2065 3.17873 12.1753 3.37061 12.1793C3.53186 11.6293 3.95529 11.1615 4.49498 10.9625C4.95779 10.7868 5.49311 10.8118 5.93592 11.0343C6.39623 11.2587 6.75436 11.6834 6.89404 12.1768C8.04123 12.1965 9.18904 12.1856 10.3365 12.1856C10.5334 11.5347 11.1156 11.0222 11.7856 10.9065C12.1847 10.8278 12.6028 10.8978 12.9687 11.07C12.9684 8.76435 12.9697 6.45872 12.9681 4.15341C12.974 3.95278 12.7947 3.77747 12.5956 3.78122C9.39623 3.78153 6.19654 3.78028 2.99717 3.78185C2.79717 3.77591 2.62154 3.95435 2.62498 4.15341ZM5.04092 11.8509C4.87279 11.869 4.71061 11.9397 4.58404 12.0522C4.26279 12.3265 4.21342 12.8512 4.47186 13.1837C4.69123 13.4893 5.13061 13.5972 5.47092 13.4425C5.72936 13.3315 5.91842 13.0797 5.95498 12.8012C5.99436 12.5375 5.90279 12.2562 5.70717 12.0731C5.53311 11.9037 5.28123 11.8237 5.04092 11.8509ZM12.0094 11.8822C11.6206 11.9293 11.2878 12.2659 11.2547 12.6578C11.204 13.0559 11.4703 13.4628 11.8522 13.5818C12.1584 13.6859 12.5172 13.5997 12.7428 13.3678C12.9694 13.1512 13.0544 12.8062 12.9662 12.5068C12.8547 12.1022 12.4269 11.8165 12.0094 11.8822Z" fill="#18181B"/>
</svg>
