<svg width="16" height="16" viewBox="0 0 16 16" fill="none" xmlns="http://www.w3.org/2000/svg">
<path d="M9.64031 4.65596C10.0206 4.66065 10.4012 4.64659 10.7809 4.6669C11.3956 4.66627 12.0103 4.6669 12.625 4.66659C12.7934 4.66721 12.9637 4.65971 13.13 4.69377C13.5997 4.78002 14.0169 5.10565 14.2128 5.54127C14.4959 6.17534 14.7769 6.81002 15.0591 7.44471C15.1847 7.7244 15.3287 8.00846 15.3309 8.32284C15.3366 8.92346 15.3319 9.52409 15.3334 10.125C15.33 10.386 15.3525 10.6531 15.2753 10.9066C15.1384 11.3969 14.7359 11.8006 14.2466 11.9403C14.0362 12.0056 13.8134 12.0016 13.5956 12C13.465 12.445 13.1653 12.8375 12.7659 13.0741C12.3437 13.3303 11.8147 13.4 11.3403 13.2641C10.7372 13.0972 10.2428 12.601 10.0712 12C8.69031 12 7.30968 12 5.92874 12C5.79843 12.445 5.49812 12.8385 5.09843 13.0744C4.71562 13.3066 4.24468 13.386 3.80656 13.2963C3.20624 13.1772 2.68218 12.7363 2.46281 12.165C2.43874 12.1022 2.42406 12.0335 2.37656 11.9828C2.37406 11.661 2.37374 11.3391 2.37687 11.0172C2.40312 10.9847 2.42406 10.9481 2.43656 10.9085C2.51593 10.6675 2.65187 10.4469 2.82281 10.2603C2.94124 10.1285 3.09062 10.0285 3.20531 9.89284C3.60593 9.4569 4.18718 9.19377 4.77999 9.18784C6.40906 9.18721 8.03781 9.18752 9.66656 9.18752C9.66687 7.79159 9.66624 6.39596 9.66687 5.00002C9.66999 4.88471 9.66718 4.76877 9.64031 4.65596ZM10.6666 5.66659C10.6666 6.22221 10.6666 6.77784 10.6666 7.33346C11.7494 7.33315 12.8325 7.33346 13.9153 7.33346C13.7134 6.87909 13.5122 6.4244 13.3094 5.97065C13.2337 5.78846 13.045 5.66315 12.8475 5.66721C12.1206 5.66596 11.3934 5.66721 10.6666 5.66659ZM10.6666 10.0897C10.9144 9.88909 11.2116 9.74596 11.5272 9.69377C11.9866 9.61346 12.4756 9.71909 12.8587 9.98534C13.2131 10.2241 13.4747 10.5906 13.5956 10.9997C13.7534 10.9963 13.9244 11.0222 14.0691 10.9428C14.23 10.8597 14.3356 10.6831 14.3328 10.5016C14.3328 9.77909 14.3353 9.05627 14.3316 8.33346C13.11 8.33315 11.8884 8.33346 10.6669 8.33315C10.6662 8.91877 10.6672 9.5044 10.6666 10.0897ZM5.44156 10.1872C5.66906 10.4119 5.83843 10.6935 5.92874 11C7.17468 11 8.42062 11 9.66656 11C9.66656 10.7291 9.66656 10.4585 9.66656 10.1875C8.25843 10.1872 6.84999 10.1878 5.44156 10.1872ZM3.91937 10.7031C3.66437 10.7825 3.45093 10.9894 3.37499 11.2472C3.26343 11.5913 3.39999 12.0003 3.70687 12.196C4.04062 12.4244 4.53718 12.3594 4.79562 12.0466C5.02937 11.7803 5.06124 11.3631 4.87499 11.0625C4.68843 10.741 4.27124 10.5906 3.91937 10.7031ZM11.5744 10.7066C11.3584 10.7753 11.1731 10.9366 11.0787 11.1428C10.9572 11.4003 10.9781 11.72 11.135 11.9581C11.3616 12.3231 11.8844 12.4416 12.2509 12.2228C12.6262 12.0194 12.7747 11.5088 12.5819 11.131C12.4131 10.7631 11.955 10.5775 11.5744 10.7066Z" fill="#18181B"/>
</svg>
