<svg width="16" height="16" viewBox="0 0 16 16" fill="none" xmlns="http://www.w3.org/2000/svg">
<path d="M13.665 5.54688C13.5541 4.92834 13.0256 4.47791 12.4122 4.33728C11.4943 4.14062 9.79554 4 7.95759 4C6.12072 4 4.39478 4.14062 3.4758 4.33728C2.86351 4.47791 2.33388 4.89978 2.22295 5.54688C2.11093 6.25 2 7.23438 2 8.5C2 9.76562 2.11093 10.75 2.25014 11.4531C2.36215 12.0717 2.8907 12.5221 3.50299 12.6627C4.47743 12.8594 6.14791 13 7.98586 13C9.82382 13 11.4943 12.8594 12.4687 12.6627C13.081 12.5221 13.6096 12.1002 13.7216 11.4531C13.8325 10.75 13.9717 9.73706 14 8.5C13.9434 7.23438 13.8042 6.25 13.665 5.54688ZM6.4546 10.4688V6.53125L9.85101 8.5L6.4546 10.4688Z" fill="#18181B"/>
</svg>
