<svg width="78" height="36" viewBox="0 0 78 36" fill="none" xmlns="http://www.w3.org/2000/svg">
<g clip-path="url(#clip0_587_936)">
<path d="M16.988 0.00128174C12.8306 0.00128174 9.16071 1.52381 8.08468 5.53955L5.1167 16.6161H8.08468L10.9187 6.29673C11.6551 3.54853 14.1429 2.92177 16.988 2.92177H23.2358L19.2145 16.6161H22.1824L26.5566 1.84016C26.8002 0.915158 26.1069 0.00837072 25.1504 0.00128174H16.988Z" fill="#09090B"/>
<path d="M8.08309 8.30869V11.2401H21.442L22.9244 8.30869H8.08309Z" fill="#09090B"/>
<path d="M4.37468 19.3853L-3.8147e-06 36.0001H2.96793L7.34266 19.3853H4.37468Z" fill="#09090B"/>
<path d="M3.2964 27.6981V30.6187H16.5255V27.6981H3.2964Z" fill="#09090B"/>
<path d="M18.2806 19.3853L13.3558 36.0001H16.3237L21.2486 19.3853H18.2806Z" fill="#09090B"/>
<path d="M66.7016 0.00119019H75.6055C74.1215 5.53946 66.7016 5.53945 65.2176 5.53946L66.7016 0.00119019Z" fill="#09090B"/>
<path d="M28.8603 0.00128174L24.4084 16.616H36.2801L40.732 0.00128174H37.7641L34.0542 13.8469H28.1183L31.8282 0.00128174H28.8603Z" fill="#09090B"/>
<path d="M57.0552 0L52.6019 16.6167H64.4763L68.9266 0H57.0552ZM59.2818 2.7704H65.2175L62.2496 13.8463H56.3139L59.2818 2.7704Z" fill="#09090B"/>
<path d="M42.9582 16.6161L46.6681 2.77041H42.2162L42.9581 0.00128174H54.8299L54.0879 2.77041H49.636L45.9261 16.616L42.9582 16.6161Z" fill="#09090B"/>
<path d="M35.5382 19.3853H23.6664L19.2145 36.0001H31.0863L31.8283 33.2309H22.9244L24.4084 27.6927H30.3443L31.0863 24.9235H25.1504L25.8923 22.1544H34.7962L35.5382 19.3853Z" fill="#09090B"/>
<path d="M37.7641 19.3853V36.0001H42.2161L49.636 19.3853H46.668L40.7321 33.2309V19.3853H37.7641Z" fill="#09090B"/>
<path d="M63.7337 19.3853H51.8619L47.4099 36.0001H59.2818L60.0237 33.2309H51.1198L52.6038 27.6927H58.5398L59.2818 24.9235H53.3459L54.0878 22.1544H62.9917L63.7337 19.3853Z" fill="#09090B"/>
<path d="M61.5077 36.0001L65.9597 19.3853H68.9276L71.1536 31.8464L74.8635 19.3853H77.8314L73.3795 36.0001L68.9099 36L67.0726 26.3081L64.4757 36.0001H61.5077Z" fill="#09090B"/>
</g>
<defs>
<clipPath id="clip0_587_936">
<rect width="77.8314" height="36" fill="white"/>
</clipPath>
</defs>
</svg>
