<svg width="900" height="500" viewBox="0 0 900 500" fill="none" xmlns="http://www.w3.org/2000/svg">
<path d="M449.447 1.83408C459.07 -0.356608 468.987 0.0382344 478.79 0.0127613C513.309 0.420331 547.802 2.13975 582.308 3.29877C615.472 4.26675 646.77 27.027 657.224 58.499C662.196 72.471 667.218 86.4175 672.19 100.389C673.519 103.981 673.954 107.789 674.235 111.585C663.704 111.636 653.16 111.598 642.63 111.61C637.313 96.7468 632.035 81.8706 626.655 67.0452C619.689 48.4626 600.813 35.3949 580.992 34.7963C547.342 33.6754 513.705 31.9942 480.042 31.5485C470.674 31.6121 461.102 30.9243 452.003 33.5863C431.12 39.0885 411.209 47.6092 391.425 56.1172C354.964 72.0889 319.384 89.9837 284.073 108.312C273.504 108.783 262.884 108.375 252.302 108.49C252.315 96.7213 259.331 85.3476 269.964 80.1893C314.132 57.0979 358.849 34.8345 405.126 16.2009C419.605 10.5841 434.226 5.10737 449.447 1.83408Z" fill="black"/>
<path d="M772.17 131.339C795.378 128.843 819.481 130.83 841.169 139.847C861.681 148.164 879.777 163.435 889.452 183.496C899.625 204.001 901.887 227.73 898.59 250.171C895.51 270.932 885.822 290.941 870.192 305.18C853.144 321.088 830.306 329.775 807.264 332.055C778.624 334.895 748.207 331.329 723.337 315.994C705.777 305.461 692.537 288.406 685.802 269.2C679.438 250.859 678.479 230.914 681.38 211.822C684.639 190.259 695.579 169.766 712.372 155.679C729.063 141.465 750.571 133.848 772.17 131.339ZM775.825 158.099C757.984 160.162 740.194 168.021 728.884 182.298C715.298 198.983 711.746 221.578 713.803 242.466C715.299 260.233 722.736 278.09 736.884 289.502C753.702 303.665 776.847 307.104 798.177 305.766C818.012 304.684 838.23 296.647 850.818 280.866C864.735 263.889 868.263 240.721 865.86 219.464C863.802 200.117 854.422 180.744 837.795 169.829C819.711 157.895 796.912 155.743 775.825 158.099Z" fill="black"/>
<path d="M136.337 132.867C145.526 132.88 154.728 132.816 163.917 132.905C188.25 198.753 212.66 264.575 236.98 330.423C226.603 330.309 216.225 330.716 205.861 330.22C200.391 314.426 194.461 298.798 188.787 283.082C147.967 283.196 107.148 282.827 66.3411 283.26C55.8359 299.13 45.1902 314.923 34.3016 330.525C22.8635 330.309 11.4253 330.525 0 330.411C45.4202 264.55 90.9043 198.728 136.337 132.867ZM83.4024 258.143C115.595 258.169 147.788 258.169 179.994 258.143C168.926 226.722 158.012 195.25 146.817 163.868C125.538 195.212 104.553 226.735 83.4024 258.143Z" fill="black"/>
<path d="M252.787 132.88C263.459 132.854 274.13 132.854 284.801 132.88C284.827 171.522 284.814 210.178 284.814 248.82C284.635 260.997 286.859 273.669 293.875 283.884C299.243 291.908 307.537 297.665 316.56 300.938C330.477 306.071 345.634 306.593 360.293 305.625C374.555 304.441 389.572 300.467 399.937 290.049C409.994 279.923 413.777 265.276 413.867 251.368C413.944 211.872 413.867 172.376 413.905 132.88C424.462 132.854 435.031 132.854 445.6 132.867C445.625 172.363 445.587 211.846 445.612 251.342C445.6 263.875 443.81 276.599 438.877 288.215C432.091 304.861 417.854 317.891 401.176 324.412C379.642 332.971 355.884 333.875 333.008 332.27C311.703 330.487 289.492 324.386 273.823 309.128C262.245 297.983 255.842 282.419 253.784 266.702C252.417 257.405 252.851 247.993 252.787 238.631C252.787 203.376 252.775 168.122 252.787 132.88Z" fill="black"/>
<path d="M472.925 132.88C540.122 132.842 607.32 132.867 674.517 132.867C674.53 141.541 674.542 150.214 674.517 158.888C646.196 158.99 617.876 158.735 589.568 159.002C589.683 216.151 589.594 273.287 589.606 330.423C579.025 330.449 568.43 330.449 557.835 330.423C557.81 273.249 557.848 216.075 557.81 158.888C529.527 158.901 501.232 158.888 472.937 158.901C472.899 150.227 472.925 141.553 472.925 132.88Z" fill="black"/>
<path d="M199.166 413.53C205.352 413.569 211.537 413.518 217.735 413.569C215.831 425.286 213.953 437.004 212.074 448.721C231.129 448.734 250.197 448.734 269.252 448.721C271.169 437.004 273.022 425.273 274.926 413.543C281.15 413.543 287.387 413.543 293.61 413.556C289.01 442.366 284.473 471.189 279.808 499.999C273.584 499.986 267.373 500.012 261.149 499.986C263.041 487.861 265.009 475.748 266.913 463.623C247.858 463.585 228.803 463.636 209.748 463.61C207.741 475.723 205.888 487.861 203.946 499.986C197.76 499.999 191.575 499.999 185.376 499.999C189.952 471.176 194.552 442.353 199.166 413.53Z" fill="black"/>
<path d="M317.326 413.568C341.072 413.53 364.817 413.543 388.562 413.568C387.821 418.268 387.105 422.993 386.339 427.693C368.562 427.731 350.797 427.718 333.02 427.706C331.73 434.787 330.694 441.932 329.531 449.039C346.005 449.052 362.478 449.052 378.952 449.039C378.223 453.739 377.508 458.439 376.728 463.139C360.28 463.164 343.845 463.113 327.41 463.164C326.221 470.742 324.943 478.308 323.768 485.899C341.545 485.912 359.322 485.924 377.099 485.886C376.345 490.586 375.539 495.273 374.798 499.973C351.066 500.011 327.333 499.998 303.601 499.986C308.125 471.175 312.79 442.378 317.326 413.568Z" fill="black"/>
<path d="M394.007 413.556C400.691 413.543 407.375 413.53 414.059 413.569C422.315 435.552 430.443 457.586 438.75 479.544C454.086 457.599 469.294 435.577 484.541 413.569C491.57 413.505 498.599 413.569 505.628 413.53C485.167 442.353 464.694 471.163 444.233 499.986C438.763 499.999 433.293 499.999 427.836 499.986C416.577 471.163 405.292 442.366 394.007 413.556Z" fill="black"/>
<path d="M515.698 413.555C539.418 413.555 563.151 413.517 586.883 413.568C586.167 418.28 585.401 422.993 584.685 427.705C566.882 427.718 549.093 427.731 531.29 427.705C530.153 434.812 528.977 441.919 527.852 449.039C544.313 449.065 560.786 449.039 577.247 449.052C576.57 453.752 575.816 458.439 575.062 463.138C558.639 463.138 542.217 463.138 525.795 463.138C524.491 470.704 523.277 478.295 522.101 485.899C539.878 485.911 557.655 485.911 575.432 485.899C574.678 490.586 573.924 495.298 573.119 499.998C549.374 499.985 525.628 500.023 501.896 499.973C506.509 471.175 511.046 442.352 515.698 413.555Z" fill="black"/>
<path d="M606.374 413.555C611.051 413.529 615.742 413.58 620.419 413.491C636.995 433.806 653.2 454.426 669.661 474.843C672.907 454.413 676.063 433.971 679.335 413.555C685.265 413.542 691.208 413.542 697.138 413.542C692.55 442.365 687.987 471.175 683.348 499.985C678.594 499.997 673.84 499.985 669.098 499.997C652.676 479.606 636.394 459.126 619.934 438.773C616.713 459.177 613.531 479.581 610.297 499.985C604.393 499.997 598.489 499.997 592.597 499.985C597.185 471.162 601.773 442.352 606.374 413.555Z" fill="black"/>
<path d="M4.63693 449.358C56.4088 449.384 108.181 449.358 159.965 449.384C159.978 456.376 159.953 463.368 159.978 470.361C108.193 470.412 56.4088 470.374 4.61137 470.386C4.61137 463.368 4.58581 456.363 4.63693 449.358Z" fill="black"/>
<path d="M719.503 449.37C771.249 449.37 823.008 449.37 874.755 449.37C874.793 456.363 874.755 463.368 874.78 470.386C823.021 470.373 771.262 470.411 719.503 470.36C719.49 463.355 719.49 456.363 719.503 449.37Z" fill="black"/>
</svg>
