<?xml version="1.0" encoding="UTF-8" standalone="no"?>
<!-- Created with Inkscape (http://www.inkscape.org/) -->

<svg
   width="13.728595mm"
   height="6.3499999mm"
   viewBox="0 0 13.728594 6.3499999"
   version="1.1"
   id="svg1"
   inkscape:version="1.3 (0e150ed6c4, 2023-07-21)"
   sodipodi:docname="logotype_draft.svg"
   xmlns:inkscape="http://www.inkscape.org/namespaces/inkscape"
   xmlns:sodipodi="http://sodipodi.sourceforge.net/DTD/sodipodi-0.dtd"
   xmlns="http://www.w3.org/2000/svg"
   xmlns:svg="http://www.w3.org/2000/svg">
  <sodipodi:namedview
     id="namedview1"
     pagecolor="#ffffff"
     bordercolor="#000000"
     borderopacity="0.25"
     inkscape:showpageshadow="2"
     inkscape:pageopacity="0.0"
     inkscape:pagecheckerboard="0"
     inkscape:deskcolor="#d1d1d1"
     inkscape:document-units="mm"
     inkscape:zoom="3.9945847"
     inkscape:cx="-47.188885"
     inkscape:cy="13.89381"
     inkscape:window-width="2256"
     inkscape:window-height="1398"
     inkscape:window-x="-11"
     inkscape:window-y="-11"
     inkscape:window-maximized="1"
     inkscape:current-layer="layer1" />
  <defs
     id="defs1" />
  <g
     inkscape:label="Layer 1"
     inkscape:groupmode="layer"
     id="layer1"
     transform="translate(-101.40707,-153.19375)">
    <g
       id="g2"
       transform="matrix(0.97688851,0,0,0.97688851,2.3436685,3.5405358)">
      <path
         style="color:#000000;fill:#000000;stroke-linejoin:round;-inkscape-stroke:none"
         d="m 104.47445,153.19398 c -0.75067,0 -1.41331,0.27491 -1.6076,1 l -0.5359,2 h 0.5359 l 0.51172,-1.86328 c 0.13296,-0.49622 0.58216,-0.60938 1.09588,-0.60938 h 1.12812 l -0.7261,2.47266 h 0.5359 l 0.7898,-2.66797 c 0.044,-0.16702 -0.0812,-0.33075 -0.2539,-0.33203 z"
         id="path26"
         sodipodi:nodetypes="sccccscccccs" />
      <path
         style="color:#000000;fill:#000000;stroke-linejoin:round;-inkscape-stroke:none"
         d="m 102.86657,154.69398 v 0.5293 h 2.41211 l 0.26766,-0.5293 z"
         id="path27"
         sodipodi:nodetypes="ccccc" />
      <g
         id="g20"
         transform="translate(6.928588,49.461658)">
        <path
           style="color:#000000;opacity:1;fill:#000000;stroke-linejoin:round;-inkscape-stroke:none"
           d="m 95.26839,107.23232 -0.789908,3 h 0.535898 l 0.789909,-3 z"
           id="path23"
           sodipodi:nodetypes="ccccc" />
        <path
           style="color:#000000;opacity:1;fill:#000000;stroke-linejoin:round;-inkscape-stroke:none"
           d="m 95.07369,108.7333 v 0.52735 h 2.388672 v -0.52735 z"
           id="path24" />
        <path
           style="color:#000000;opacity:1;fill:#000000;stroke-linejoin:round;-inkscape-stroke:none"
           d="m 97.77927,107.23232 -0.889247,3 h 0.535899 l 0.889247,-3 z"
           id="path25"
           sodipodi:nodetypes="ccccc" />
      </g>
      <g
         id="g28"
         transform="translate(28.456148,62.429396)"
         style="fill:#000000">
        <path
           style="color:#000000;fill:#000000;stroke-linejoin:round;-inkscape-stroke:none"
           d="m 84.994695,90.764582 h 1.607698 c -0.267949,1.000001 -1.607697,1 -1.875645,1.000001 z"
           id="path28"
           sodipodi:nodetypes="cccc" />
      </g>
      <path
         style="fill:#000000;stroke:none;stroke-width:0.529167;stroke-linejoin:round;stroke-dasharray:none"
         d="m 106.61814,153.19398 -0.80385,2.99999 h 2.14359 l 0.80385,-2.99999 h -0.5359 l -0.66987,2.5 h -1.07179 l 0.66987,-2.5 z"
         id="path29"
         sodipodi:nodetypes="ccccccccc" />
      <path
         id="path30"
         style="fill:#000000;stroke:none;stroke-width:0.529167;stroke-linejoin:round;stroke-dasharray:none"
         d="m 111.70906,153.19375 -0.80409,3.00034 h 2.14406 l 0.80356,-3.00034 z m 0.40204,0.50023 h 1.07177 l -0.53589,1.99988 h -1.07177 z" />
      <path
         style="fill:#000000;stroke:none;stroke-width:0.529167;stroke-linejoin:round;stroke-dasharray:none"
         d="m 109.16367,156.19398 0.66987,-2.5 h -0.80385 l 0.13397,-0.5 h 2.1436 l -0.13398,0.5 h -0.80385 l -0.66987,2.49999 z"
         id="path31"
         sodipodi:nodetypes="ccccccccc" />
      <path
         style="fill:#000000;stroke:none;stroke-width:0.529167;stroke-linejoin:round;stroke-dasharray:none"
         d="m 107.82391,156.69398 h -2.14359 l -0.80385,3 h 2.1436 l 0.13397,-0.5 h -1.6077 l 0.26795,-1 h 1.0718 l 0.13398,-0.50001 h -1.0718 l 0.13397,-0.49999 h 1.6077 z"
         id="path17" />
      <path
         style="fill:#000000;stroke:none;stroke-width:0.529167;stroke-linejoin:round;stroke-dasharray:none"
         d="m 108.22583,156.69398 v 3 h 0.80385 l 1.33975,-3 h -0.5359 l -1.0718,2.5 v -2.5 z"
         id="path18"
         sodipodi:nodetypes="cccccccc" />
      <path
         style="fill:#000000;stroke:none;stroke-width:0.529167;stroke-linejoin:round;stroke-dasharray:none"
         d="m 112.91494,156.69398 h -2.14359 l -0.80385,3 h 2.1436 l 0.13397,-0.5 h -1.6077 l 0.26795,-1 h 1.0718 l 0.13398,-0.50001 h -1.0718 l 0.13397,-0.49999 h 1.6077 z"
         id="path19" />
      <path
         style="fill:#000000;stroke:none;stroke-width:0.529167;stroke-linejoin:round;stroke-dasharray:none"
         d="m 112.51302,159.69398 0.80385,-3 h 0.5359 l 0.40192,2.25 0.66988,-2.25 h 0.53589 l -0.80384,3 -0.80704,-1e-5 -0.33175,-1.74999 -0.46891,1.75 z"
         id="path20"
         sodipodi:nodetypes="ccccccccccc" />
    </g>
  </g>
</svg>
