<svg width="131" height="50" viewBox="0 0 131 50" fill="none" xmlns="http://www.w3.org/2000/svg">
<path d="M23.5194 0.00183105C17.7636 0.00183105 12.6827 2.10972 11.193 7.66941L7.08392 23.0046H11.193L15.1167 8.71771C16.1361 4.9129 19.5804 4.04516 23.5194 4.04516H32.1693L26.6019 23.0046H30.711L36.7668 2.54771C37.1042 1.26707 36.1442 0.0116456 34.82 0.00183105H23.5194Z" fill="black"/>
<path d="M11.1909 11.5032V15.5616H29.6859L31.7382 11.5032H11.1909Z" fill="black"/>
<path d="M6.05663 26.8384L0 49.8411H4.10903L10.1657 26.8384H6.05663Z" fill="black"/>
<path d="M4.56384 38.3473V42.3908H22.8792V38.3473H4.56384Z" fill="black"/>
<path d="M25.3089 26.8384L18.4906 49.8411H22.5996L29.418 26.8384H25.3089Z" fill="black"/>
<path d="M92.3465 0.00158691H104.674C102.619 7.66917 92.3465 7.66916 90.292 7.66916L92.3465 0.00158691Z" fill="black"/>
<path d="M39.9562 0.00183105L33.7927 23.0044H50.2288L56.3923 0.00183105H52.2833L47.147 19.1708H38.929L44.0653 0.00183105H39.9562Z" fill="black"/>
<path d="M78.9913 0L72.8259 23.0053H89.2656L95.427 0H78.9913ZM82.074 3.83554H90.2918L86.1829 19.1698H77.965L82.074 3.83554Z" fill="black"/>
<path d="M59.4744 23.0046L64.6107 3.83562H58.4471L59.4743 0.00183105H75.9105L74.8832 3.83562H68.7196L63.5834 23.0044L59.4744 23.0046Z" fill="black"/>
<path d="M49.2017 26.8384H32.7656L26.602 49.8411H43.0382L44.0654 46.0073H31.7383L33.7928 38.3397H42.0109L43.0382 34.5058H34.8201L35.8473 30.6722H48.1745L49.2017 26.8384Z" fill="black"/>
<path fill-rule="evenodd" clip-rule="evenodd" d="M50.1091 34.6676C51.5988 29.1079 56.6797 27 62.4355 27H66.5446C67.8687 27.0098 68.8287 28.2652 68.4913 29.5459L62.4355 50.0027H58.3264L60.5354 42.4804H52.175L50.1091 50.0027H46L50.1091 34.6676ZM53.2895 38.422H61.7271L63.8938 31.0433H62.4355C58.4965 31.0433 55.0522 31.9111 54.0327 35.7159L53.2895 38.422Z" fill="black"/>
<path d="M71.6466 26.9973V50H77.8102L88.0828 26.9973H83.9737L75.7556 46.1663V26.9973H71.6466Z" fill="black"/>
<path d="M108.783 26.9973H92.3472L86.1836 50H102.62L103.647 46.1663H91.3199L93.3744 38.4987H101.593L102.62 34.6648H94.4017L95.4289 30.8311H107.756L108.783 26.9973Z" fill="black"/>
<path d="M107.989 50L114.153 26.9973H118.262L121.343 44.2494L126.48 26.9973H130.589L124.425 50L118.237 49.9999L115.694 36.5818L112.098 50H107.989Z" fill="black"/>
</svg>
