<svg width="28" height="28" viewBox="0 0 28 28" fill="none" xmlns="http://www.w3.org/2000/svg">
<path d="M26.6875 7H26.25V4.375C26.25 1.925 20.825 0 14 0C7.175 0 1.75 1.925 1.75 4.375V7H1.3125C0.587891 7 0 7.58734 0 8.3125V12.6875C0 13.4121 0.587891 14 1.3125 14H1.75V22.75C1.75 23.7163 2.53367 24.5 3.5 24.5V26.25C3.5 27.2163 4.28367 28 5.25 28H7C7.96633 28 8.75 27.2163 8.75 26.25V24.5H19.25V26.25C19.25 27.2163 20.0337 28 21 28H22.75C23.7163 28 24.5 27.2163 24.5 26.25V24.5H24.85C25.725 24.5 26.25 23.8 26.25 23.1V14H26.6875C27.4121 14 28 13.4121 28 12.6875V8.3125C28 7.58734 27.4121 7 26.6875 7ZM8.75 3.9375C8.75 3.69578 8.94578 3.5 9.1875 3.5H18.8125C19.0542 3.5 19.25 3.69578 19.25 3.9375V4.8125C19.25 5.05422 19.0542 5.25 18.8125 5.25H9.1875C8.94578 5.25 8.75 5.05422 8.75 4.8125V3.9375ZM6.125 21.875C5.15867 21.875 4.375 21.0913 4.375 20.125C4.375 19.1587 5.15867 18.375 6.125 18.375C7.09133 18.375 7.875 19.1587 7.875 20.125C7.875 21.0913 7.09133 21.875 6.125 21.875ZM13.125 15.75H7C6.03367 15.75 5.25 14.9663 5.25 14V8.75C5.25 7.78367 6.03367 7 7 7H13.125V15.75ZM14.875 15.75V7H21C21.9663 7 22.75 7.78367 22.75 8.75V14C22.75 14.9663 21.9663 15.75 21 15.75H14.875ZM21.875 21.875C20.9087 21.875 20.125 21.0913 20.125 20.125C20.125 19.1587 20.9087 18.375 21.875 18.375C22.8413 18.375 23.625 19.1587 23.625 20.125C23.625 21.0913 22.8413 21.875 21.875 21.875Z" fill="#2463EB"/>
</svg>
