<svg width="28" height="22" viewBox="0 0 28 22" fill="none" xmlns="http://www.w3.org/2000/svg">
<path d="M27.343 6.41667H24.0689L23.1589 4.03333C22.2237 1.58297 19.9919 0 17.4725 0H10.5272C8.00825 0 5.7759 1.58297 4.8402 4.03333L3.9302 6.41667H0.656599C0.229489 6.41667 -0.0838709 6.83719 0.0200355 7.27089L0.348161 8.64589C0.420895 8.95182 0.683396 9.16667 0.984724 9.16667H2.0823C1.34785 9.8387 0.874802 10.8155 0.874802 11.9167V14.6667C0.874802 15.5902 1.21168 16.4238 1.7498 17.0689V20.1667C1.7498 21.179 2.53348 22 3.49981 22H5.24981C6.21614 22 6.99981 21.179 6.99981 20.1667V18.3333H20.9998V20.1667C20.9998 21.179 21.7835 22 22.7498 22H24.4998C25.4662 22 26.2498 21.179 26.2498 20.1667V17.0689C26.788 16.4244 27.1248 15.5908 27.1248 14.6667V11.9167C27.1248 10.8155 26.6518 9.8387 25.9179 9.16667H27.0155C27.3168 9.16667 27.5793 8.95182 27.652 8.64589L27.9802 7.27089C28.0835 6.83719 27.7701 6.41667 27.343 6.41667ZM8.08973 5.39516C8.48841 4.3513 9.45364 3.66667 10.5272 3.66667H17.4725C18.546 3.66667 19.5112 4.3513 19.9099 5.39516L20.9998 8.25H6.99981L8.08973 5.39516ZM5.24981 14.6552C4.19981 14.6552 3.49981 13.9242 3.49981 12.8276C3.49981 11.731 4.19981 11 5.24981 11C6.29981 11 7.87481 12.6448 7.87481 13.7414C7.87481 14.838 6.29981 14.6552 5.24981 14.6552ZM22.7498 14.6552C21.6998 14.6552 20.1248 14.838 20.1248 13.7414C20.1248 12.6448 21.6998 11 22.7498 11C23.7998 11 24.4998 11.731 24.4998 12.8276C24.4998 13.9242 23.7998 14.6552 22.7498 14.6552Z"/>
</svg>
