<svg width="28" height="18" viewBox="0 0 28 18" fill="none" xmlns="http://www.w3.org/2000/svg">
<path d="M22.436 5.9999C21.7843 5.99521 21.1631 6.10771 20.5814 6.32333L19.1423 3.74994H22.7465C23.3283 3.74994 23.7963 3.24838 23.7963 2.62496V1.12498C23.7963 0.501554 23.3283 0 22.7465 0H20.7651C20.4677 0 20.1833 0.135935 19.9865 0.370307L18.3462 2.32496L17.349 0.543741C17.1565 0.206247 16.8153 0 16.4479 0H12.9486C12.5637 0 12.2488 0.337494 12.2488 0.749988V1.49998C12.2488 1.91247 12.5637 2.24996 12.9486 2.24996H15.853L16.6928 3.74994H9.96991C9.1957 2.66714 8.00595 1.87497 5.60022 1.87497H3.17261C2.58211 1.87497 2.08784 2.39059 2.10097 3.02339C2.10971 3.63275 2.57774 4.12493 3.15074 4.12493H5.60022C6.67186 4.12493 7.29298 4.63586 7.69102 5.28741L7.19675 6.24834C6.62812 6.06553 6.02013 5.98115 5.39026 6.00459C2.44652 6.11709 0.0714014 8.69986 0.00141636 11.8592C-0.0685687 15.2388 2.46401 17.9997 5.60022 17.9997C8.20716 17.9997 10.3986 16.0872 11.0241 13.4998H14.707C15.3063 13.4998 15.783 12.9654 15.7568 12.3232C15.6649 10.1155 16.5223 7.93112 18.215 6.46396L18.7618 7.43894C17.5545 8.54986 16.7891 10.1998 16.8022 12.042C16.8241 15.3044 19.3042 17.9716 22.3485 17.9997C25.4803 18.0325 28.026 15.3044 27.9998 11.9482C27.9692 8.6858 25.4803 6.02334 22.436 5.9999ZM5.60022 15.7497C3.67126 15.7497 2.10097 14.067 2.10097 11.9998C2.10097 9.93265 3.67126 8.24987 5.60022 8.24987C5.78393 8.24987 5.96764 8.26393 6.14698 8.29674L4.33174 11.8311C3.94682 12.581 4.45421 13.4998 5.25029 13.4998H8.80641C8.26402 14.8216 7.03054 15.7497 5.60022 15.7497ZM25.8915 12.2061C25.7953 14.1091 24.3606 15.6466 22.5891 15.7451C20.5726 15.8622 18.8974 14.1373 18.8974 11.9998C18.8974 10.9967 19.2648 10.0873 19.864 9.41703L22.0248 13.2795C22.2217 13.6357 22.6547 13.7482 22.9871 13.5373L23.5864 13.1529C23.9188 12.942 24.0238 12.4779 23.8269 12.1217L21.7011 8.32955C21.9286 8.27799 22.1604 8.25455 22.3966 8.25455C24.3912 8.24987 25.9965 10.0451 25.8915 12.2061Z" fill="#2463EB"/>
</svg>
