<svg width="28" height="22" viewBox="0 0 28 22" fill="none" xmlns="http://www.w3.org/2000/svg">
<path d="M16.1 0C17.2594 0 18.2 0.923398 18.2 2.0625V4.125H20.4181C21.1619 4.125 21.8356 4.41289 22.4 4.92852L25.7819 8.25C26.3069 8.76562 26.6 9.46602 26.6 10.1965V15.125C27.3744 15.125 28 15.7395 28 16.5C28 17.2605 27.3744 17.875 26.6 17.875H25.2C25.2 20.1523 23.3188 22 21 22C18.6419 22 16.8 20.1523 16.8 17.875H11.2C11.2 20.1523 9.31875 22 7 22C4.64187 22 2.8 20.1523 2.8 17.875H2.1C0.940187 17.875 0 16.9512 0 15.8125V2.0625C0 0.923398 0.940187 0 2.1 0H16.1ZM18.2 6.875V11H23.8V10.1965L20.4181 6.875H18.2ZM7 15.8125C5.84062 15.8125 4.9 16.7363 4.9 17.875C4.9 19.0137 5.84062 19.9375 7 19.9375C8.15938 19.9375 9.1 19.0137 9.1 17.875C9.1 16.7363 8.15938 15.8125 7 15.8125ZM21 19.9375C22.1594 19.9375 23.1 19.0137 23.1 17.875C23.1 16.7363 22.1594 15.8125 21 15.8125C19.8406 15.8125 18.9 16.7363 18.9 17.875C18.9 19.0137 19.8406 19.9375 21 19.9375Z" fill="#2463EB"/>
</svg>
